<svg xmlns="http://www.w3.org/2000/svg" width="2371.65" height="846.63" viewBox="0 0 2371.65 846.63">
  <g id="Ilastration" transform="translate(50.388 -288.917)" opacity="0.07">
    <g id="Ilastration-2" data-name="Ilastration" transform="translate(-50.388 288.917)">
      <g id="_248_Converted_" data-name="248 [Converted]" transform="translate(0 0)">
        <rect id="Rectangle_11" data-name="Rectangle 11" width="297.766" height="17.58" transform="translate(397.222 574.883)" fill="#e6e7e8"/>
        <rect id="Rectangle_12" data-name="Rectangle 12" width="20.188" height="8.832" transform="translate(397.222 566.135)" fill="#8ed8f8"/>
        <rect id="Rectangle_13" data-name="Rectangle 13" width="297.766" height="17.58" transform="translate(674.801 574.883)" fill="#e6e7e8"/>
        <rect id="Rectangle_14" data-name="Rectangle 14" width="257.391" height="8.832" transform="translate(719.214 566.135)" fill="#0095da"/>
        <path id="Path_9" data-name="Path 9" d="M1051.1,720.1h23.384v8.832H1051.1V720.1Zm187.24,0h23.384v8.832H1238.34V720.1Zm-140.387,0h23.384v8.832h-23.384V720.1Zm46.768,0H1168.1v8.832H1144.72V720.1Zm46.852,0h23.384v8.832h-23.384Z" transform="translate(-332.728 -153.965)" fill="#8ed8f8" fill-rule="evenodd"/>
        <rect id="Rectangle_15" data-name="Rectangle 15" width="549.102" height="17.58" transform="translate(952.38 574.883)" fill="#e6e7e8"/>
        <rect id="Rectangle_16" data-name="Rectangle 16" width="277.579" height="4.374" transform="translate(952.38 561.677)" fill="#d1d3d4"/>
        <rect id="Rectangle_17" data-name="Rectangle 17" width="257.391" height="8.832" transform="translate(972.568 566.135)" fill="#0095da"/>
        <path id="Path_10" data-name="Path 10" d="M1381.1,720.1h23.384v8.832H1381.1V720.1Zm187.24,0h23.384v8.832H1568.34V720.1Zm-140.388,0h23.384v8.832h-23.384V720.1Zm46.767,0H1498.1v8.832H1474.72V720.1Zm46.852,0h23.384v8.832h-23.384Z" transform="translate(-385.148 -153.965)" fill="#8ed8f8" fill-rule="evenodd"/>
        <rect id="Rectangle_18" data-name="Rectangle 18" width="20.188" height="8.832" transform="translate(952.38 566.135)" fill="#8ed8f8"/>
        <rect id="Rectangle_19" data-name="Rectangle 19" width="20.188" height="8.832" transform="translate(397.222 566.135)" fill="#8ed8f8"/>
        <path id="Path_11" data-name="Path 11" d="M1452.708,698.26c6.392-2.019,11.608.421,11.608,3.449s-5.215,5.467-11.608,5.467-11.608-2.439-11.608-5.467C1441.1,698.765,1446.315,696.242,1452.708,698.26Z" transform="translate(-394.68 -150.379)" fill="#77c585" fill-rule="evenodd"/>
        <rect id="Rectangle_20" data-name="Rectangle 20" width="23.216" height="9.673" transform="translate(1046.421 552.004)" fill="#e6e7e8"/>
        <path id="Path_12" data-name="Path 12" d="M1546.408,698.26c6.393-2.019,11.608.421,11.608,3.449s-5.215,5.467-11.608,5.467-11.608-2.439-11.608-5.467C1534.8,698.765,1540.015,696.242,1546.408,698.26Z" transform="translate(-409.564 -150.379)" fill="#77c585" fill-rule="evenodd"/>
        <rect id="Rectangle_21" data-name="Rectangle 21" width="23.216" height="9.673" transform="translate(1125.236 552.004)" fill="#e6e7e8"/>
        <path id="Path_13" data-name="Path 13" d="M1411.308,698.26c6.392-2.019,11.608.421,11.608,3.449s-5.215,5.467-11.608,5.467-11.608-2.439-11.608-5.467C1399.7,698.765,1404.831,696.242,1411.308,698.26Z" transform="translate(-388.103 -150.379)" fill="#77c585" fill-rule="evenodd"/>
        <rect id="Rectangle_22" data-name="Rectangle 22" width="23.216" height="9.673" transform="translate(1011.597 552.004)" fill="#e6e7e8"/>
        <path id="Path_14" data-name="Path 14" d="M1505.008,698.26c6.393-2.019,11.608.421,11.608,3.449s-5.215,5.467-11.608,5.467-11.608-2.439-11.608-5.467C1493.4,698.765,1498.615,696.242,1505.008,698.26Z" transform="translate(-402.988 -150.379)" fill="#77c585" fill-rule="evenodd"/>
        <rect id="Rectangle_23" data-name="Rectangle 23" width="23.216" height="9.673" transform="translate(1090.413 552.004)" fill="#e6e7e8"/>
        <path id="Path_15" data-name="Path 15" d="M1210.308,698.26c-6.392-2.019-11.608.421-11.608,3.449s5.215,5.467,11.608,5.467,11.608-2.439,11.608-5.467C1221.916,698.765,1216.7,696.242,1210.308,698.26Z" transform="translate(-356.174 -150.379)" fill="#77c585" fill-rule="evenodd"/>
        <rect id="Rectangle_24" data-name="Rectangle 24" width="23.216" height="9.673" transform="translate(842.526 552.004)" fill="#e6e7e8"/>
        <path id="Path_16" data-name="Path 16" d="M1116.608,698.26c-6.392-2.019-11.608.421-11.608,3.449s5.215,5.467,11.608,5.467,11.608-2.439,11.608-5.467C1128.216,698.765,1123,696.242,1116.608,698.26Z" transform="translate(-341.289 -150.379)" fill="#77c585" fill-rule="evenodd"/>
        <rect id="Rectangle_25" data-name="Rectangle 25" width="23.216" height="9.673" transform="translate(763.71 552.004)" fill="#e6e7e8"/>
        <path id="Path_17" data-name="Path 17" d="M1251.708,698.26c-6.393-2.019-11.608.421-11.608,3.449s5.215,5.467,11.608,5.467,11.608-2.439,11.608-5.467C1263.316,698.765,1258.185,696.242,1251.708,698.26Z" transform="translate(-362.751 -150.379)" fill="#77c585" fill-rule="evenodd"/>
        <rect id="Rectangle_26" data-name="Rectangle 26" width="23.216" height="9.673" transform="translate(877.35 552.004)" fill="#e6e7e8"/>
        <path id="Path_18" data-name="Path 18" d="M1158.008,698.26c-6.393-2.019-11.608.421-11.608,3.449s5.215,5.467,11.608,5.467,11.608-2.439,11.608-5.467C1169.616,698.765,1164.4,696.242,1158.008,698.26Z" transform="translate(-347.866 -150.379)" fill="#77c585" fill-rule="evenodd"/>
        <rect id="Rectangle_27" data-name="Rectangle 27" width="23.216" height="9.673" transform="translate(798.534 552.004)" fill="#e6e7e8"/>
        <rect id="Rectangle_28" data-name="Rectangle 28" width="20.188" height="8.832" transform="translate(719.214 566.135)" fill="#8ed8f8"/>
        <g id="Group_6" data-name="Group 6" transform="translate(580.172 756.823)">
          <rect id="Rectangle_29" data-name="Rectangle 29" width="30.534" height="13.29" fill="#8ed8f8"/>
          <path id="Path_19" data-name="Path 19" d="M1278.9,946.8v13.29h-35.412V946.8Zm-283.383,0v13.29H960.1V946.8Zm212.558,0v13.29h-35.413V946.8Zm-141.733,13.374h-35.413v-13.29h35.413Zm60.31-13.374v13.29H1084.17V946.8Z" transform="translate(-898.444 -946.8)" fill="#f68c1f" fill-rule="evenodd"/>
        </g>
        <path id="bg" d="M2244.707,485.98c-91.673-51.018-138.446-132.25-138.446-132.25-169.687-249.274-444.273-187.819-571.81-144.379-42.317,14.363-101.226,35.958-136.169,67.943-92.595,84.766-354.107,140.132-580.254,0-103.856-84.27-186.694-98.354-250.684-98.73-93.809-.55-146.566,44.29-155.92,59.45-16.47,25.479-49.777,67.943-71.372,111.469-42.2,70.224-125.007,230.655-64.757,381.694,16.676,41.8,57.267,79.293,106.825,107.926.85.874-1.1-1.108,0,0,87.507,92.016,389.534,82.512,503.162,51.76.251-.088-.251-.088,0,0,51.7,19.121,108.289,14.627,160.913,0,112.873-31.368,244.744,44.409,352.087,15.507,44.412-11.984,90.583-14.362,136.169-8.283a249.949,249.949,0,0,0,76.422-1.674c60.25-10.662,110.276,8.371,110.276,8.371,232.87,21.235,362.739,31.972,480.906-15.773,29.5-17.535,46.926-31.721,79.271-55.6.5-.353-.419.529,0,0,53.63-62.385,93.768-151.115,73.237-223.457C2329.843,523.076,2244.707,485.98,2244.707,485.98Z" transform="translate(-194.318 -76.171)" fill="#fff9ef" fill-rule="evenodd"/>
        <path id="Path_21" data-name="Path 21" d="M1912.416,389.4a26.782,26.782,0,0,1,15.729,5.047,28.083,28.083,0,0,1,9.589,12.028,18.888,18.888,0,0,1,17.58,18.758v6.729h11.608a1.851,1.851,0,0,1,0,3.7h-26.833a1.851,1.851,0,0,1,0-3.7H1951.7v-6.729a15.221,15.221,0,0,0-15.225-15.225h-1.262l-.421-1.178a24.218,24.218,0,0,0-8.664-11.524,24.056,24.056,0,0,0-27.422,0,23.321,23.321,0,0,0-8.663,11.524l-.421,1.178h-1.262a15.281,15.281,0,0,0-15.141,13.374h24.9a1.851,1.851,0,1,1,0,3.7H1844.45a1.851,1.851,0,0,1,0-3.7h25.067a18.9,18.9,0,0,1,17.5-16.991,27.013,27.013,0,0,1,9.589-12.028A27.58,27.58,0,0,1,1912.416,389.4Z" transform="translate(-458.459 -101.433)" fill="#ffe0b2"/>
        <path id="Path_22" data-name="Path 22" d="M1835.771,642.214c54.17.084,100.265,37.683,117.256,90.171h0c45.843.084,82.937,40.375,82.853,90l-.084,89.919-82.937-.084h-.841l-116.5-.168-116.5-.168h-.841l-82.937-.084V888.755c-51.226-3.954-91.349-43.319-91.349-91.265.084-50.553,44.833-91.433,100.013-91.349,27.085,0,51.731,10.01,69.647,26.076,1.6-.084,3.2-.168,4.879-.168h0c16.907-52.32,63.086-89.919,117.34-89.835ZM1264.463,685.7c54.17.084,100.1-6.477,117.088,45.926h0c45.843.084,82.937,40.375,82.853,90l-.084,89.919-82.937-.084h-.841l-116.5-.168-116.5-.168h-.841l-82.937-.084.084-89.919c.084-49.628,37.262-89.835,83.105-89.835h0c17.159-52.4,63.338-89.919,117.508-89.835Zm-651.133-45c54.17.084,100.265,37.683,117.256,90.171h0c41.889.084,76.545,33.814,82.1,77.554a47.382,47.382,0,0,1,25.4-7.318h0c10.43-31.964,38.609-54.927,71.75-54.843,33.057,0,61.236,23.048,71.582,55.011h0c28.01,0,50.637,24.646,50.553,54.927l-.084,54.927-50.637-.084h-.5l-71.161-.084-71.161-.084h-.5l-50.637-.084h0l-56.862-.084h-.841l-116.5-.168-116.5-.168H486.485A73.861,73.861,0,0,1,412.8,836.52V820.37c.084-49.628,37.263-89.835,83.105-89.835h0C512.981,678.131,559.076,640.616,613.33,640.7Z" transform="translate(-231.332 -141.352)" fill="#ffe0b2" fill-rule="evenodd"/>
        <path id="Path_23" data-name="Path 23" d="M2039.955,642.214c54.17.084,100.265,37.683,117.256,90.171h0c45.843.084,82.937,40.375,82.854,90l-.084,89.919-82.938-.084h-.841l-116.5-.168-116.5-.168h-.841l-83.19-.084V888.755c-51.226-3.954-91.348-43.319-91.348-91.265.084-50.553,44.833-91.433,100.012-91.349,27.085,0,51.731,10.01,69.647,26.076,1.6-.084,3.2-.168,4.878-.168h0c17.16-52.319,63.338-89.919,117.592-89.834ZM1468.647,685.7c54.17.084,100.1-6.477,117.088,45.926h0c45.843.084,82.937,40.375,82.854,90l-.085,89.919-82.937-.084h-.841l-116.5-.168-116.5-.168h-.841l-82.937-.084.084-89.919c.084-49.628,37.263-89.835,83.106-89.835h0c17.159-52.4,63.338-45.674,117.508-45.59Zm-651.133-45c54.17.084,100.265,37.683,117.256,90.171h0c41.889.084,76.544,33.814,82.1,77.554a47.383,47.383,0,0,1,25.4-7.318h0c10.43-31.964,38.609-54.927,71.75-54.843,33.057,0,61.236,23.048,71.582,55.011h0c28.011,0,50.637,24.646,50.553,54.927l-.084,54.927-50.637-.084h-.5l-71.161-.084-71.161-.084h-.5l-50.637-.084h0l-56.862-.084h-.841l-116.583-.169-116.5-.168H690.585A73.861,73.861,0,0,1,616.9,836.519v-16.15c.084-49.628,37.263-89.835,83.106-89.835h0C717.165,678.131,763.26,640.616,817.514,640.7Z" transform="translate(-263.754 -141.352)" fill="#ffe0b2" fill-rule="evenodd"/>
        <path id="Path_24" data-name="Path 24" d="M1525.89,198a32.683,32.683,0,0,1,30.3,20.367,22.515,22.515,0,0,1,21,22.441v8.109h13.892a2.2,2.2,0,1,1,0,4.4h-32.122a2.2,2.2,0,0,1,0-4.4h13.892v-7.983a17.843,17.843,0,0,0-5.343-12.824,18.212,18.212,0,0,0-12.824-5.343h-1.509l-.5-1.446a28.693,28.693,0,0,0-10.372-13.766,28.488,28.488,0,0,0-32.688,0,28.4,28.4,0,0,0-10.372,13.766l-.5,1.446h-1.509a17.842,17.842,0,0,0-12.823,5.343,18.158,18.158,0,0,0-5.217,10.686h29.8a2.2,2.2,0,0,1,0,4.4H1444.8a2.2,2.2,0,0,1,0-4.4h30.047a22.469,22.469,0,0,1,20.87-20.3,32.639,32.639,0,0,1,11.441-14.4,31.5,31.5,0,0,1,18.732-6.1Zm-49.157,49.408a2.2,2.2,0,1,0,0,4.4h64.181a2.2,2.2,0,1,0,0-4.4Z" transform="translate(-363.247 -3.833)" fill="#ffd69f"/>
        <path id="Path_25" data-name="Path 25" d="M1209.491,362.5a30.2,30.2,0,0,1,17.58,5.636,30.587,30.587,0,0,1,10.683,13.458,21.05,21.05,0,0,1,19.6,21.029v7.486h12.954a2.019,2.019,0,1,1,0,4.038h-29.861a2.019,2.019,0,0,1,0-4.038H1253.4v-7.486a17.19,17.19,0,0,0-4.963-12.028,16.836,16.836,0,0,0-12.028-4.963h-1.43l-.5-1.346a26.632,26.632,0,0,0-40.291-12.785,26.214,26.214,0,0,0-9.673,12.785l-.5,1.346h-1.43a17.009,17.009,0,0,0-16.907,14.972h27.842a2.019,2.019,0,1,1,0,4.038h-59.89a2.019,2.019,0,0,1,0-4.038h28.01a21.241,21.241,0,0,1,6.057-12.87,20.9,20.9,0,0,1,13.458-6.14,30.582,30.582,0,0,1,10.682-13.458A30.064,30.064,0,0,1,1209.491,362.5Z" transform="translate(-345.515 -97.16)" fill="#ffd69f"/>
        <rect id="Rectangle_30" data-name="Rectangle 30" width="255.793" height="290.533" transform="translate(1176.799 344.576)" fill="#ffd69f"/>
        <path id="Path_26" data-name="Path 26" d="M1812,650.417v96.9h6.056V456.7H1812V650.417Z" transform="translate(-453.598 -112.124)" fill="#f78c1f" fill-rule="evenodd"/>
        <path id="Path_27" data-name="Path 27" d="M1735.3,650.417v96.9h6.056V456.7H1735.3V650.417Z" transform="translate(-441.414 -112.124)" fill="#f78c1f" fill-rule="evenodd"/>
        <path id="Path_28" data-name="Path 28" d="M1658.5,650.417v96.9h6.056V456.7H1658.5V650.417Z" transform="translate(-429.214 -112.124)" fill="#f78c1f" fill-rule="evenodd"/>
        <path id="Path_29" data-name="Path 29" d="M1842.3,650.417v6.056H1596.1v6.056h246.2v84.788h6.056V662.529h3.617v-6.056h-3.617V456.7H1842.3v6.056H1596.1v6.056h246.2v90.844H1596.1v6.056h246.2Z" transform="translate(-419.302 -112.124)" fill="#fcb64d" fill-rule="evenodd"/>
        <rect id="Rectangle_31" data-name="Rectangle 31" width="255.793" height="6.056" transform="translate(1176.799 441.477)" fill="#f78c1f"/>
        <rect id="Rectangle_32" data-name="Rectangle 32" width="255.793" height="6.056" transform="translate(1176.799 538.293)" fill="#f78c1f"/>
        <rect id="Rectangle_33" data-name="Rectangle 33" width="258.317" height="18.169" transform="translate(1176.799 635.193)" fill="#f8981d"/>
        <rect id="Rectangle_34" data-name="Rectangle 34" width="240.148" height="78.731" transform="translate(1176.799 671.447)" fill="#ffd69f"/>
        <rect id="Rectangle_35" data-name="Rectangle 35" width="120.032" height="78.731" transform="translate(1176.799 671.447)" fill="#ffd69f"/>
        <path id="Path_30" data-name="Path 30" d="M1596.1,859.7v6.056h16.15l-16.15,16.15v28.263l44.412-44.413h14.131L1596.1,924.3v2.019h12.112l60.563-60.563h63.591l-16.15,16.15v28.263l44.413-44.413h14.047l-58.46,58.544v2.019h12.113l60.479-60.563h47.441V859.7Z" transform="translate(-419.302 -176.141)" fill="#fff" fill-rule="evenodd"/>
        <rect id="Rectangle_36" data-name="Rectangle 36" width="6.056" height="66.619" transform="translate(1284.802 683.559)" fill="#f47c20"/>
        <rect id="Rectangle_37" data-name="Rectangle 37" width="6.056" height="66.619" transform="translate(1404.833 683.559)" fill="#f47c20"/>
        <path id="Path_31" data-name="Path 31" d="M1859.416,747.317V456.7h6.056V747.233h-6.056Zm-64.6,0V456.7h6.056V747.233h-6.056Zm-64.516,0V456.7h6.056V747.233H1730.3Zm-64.6,0V456.7h6.056V747.233H1665.7Z" transform="translate(-430.358 -112.124)" fill="#fff" fill-rule="evenodd"/>
        <path id="Path_32" data-name="Path 32" d="M1765.722,920.616V835.828H1126.113v84.788H1114V823.8h663.834v96.816Z" transform="translate(-342.719 -170.438)" fill="#f47c20" fill-rule="evenodd"/>
        <path id="Path_33" data-name="Path 33" d="M1600,652.261l46.011-46.011V590.1H1633.9L1600,624v28.263Zm239.727-31.88-46.011,46.011v2.019h12.113l33.9-33.9V620.382Zm-46.011,31.88V624l33.9-33.9h12.113v16.15l-46.011,46.011Zm-18.59-31.88-46.011,46.011v2.019h12.113l33.9-33.9V620.382Zm-46.011,31.88V624l33.9-33.9h12.113v16.15l-46.011,46.011Zm-18.589-31.88-46.01,46.011v2.019h12.112l33.9-33.9V620.382Zm-46.011,31.88V624l33.9-33.9h12.112v16.15l-46.011,46.011Zm-18.505-31.88v14.131l-33.9,33.9H1600v-2.019Z" transform="translate(-419.921 -133.315)" fill="#fff" fill-rule="evenodd"/>
        <path id="Path_34" data-name="Path 34" d="M1600,767.361l46.011-46.011V705.2H1633.9L1600,739.1v28.263Zm239.727-31.879-46.011,46.011v2.019h12.113l33.9-33.9V735.481Zm-46.011,31.879V739.1l33.9-33.9h12.113v16.15l-46.011,46.011Zm-18.59-31.879-46.011,46.011v2.019h12.113l33.9-33.9V735.481Zm-46.011,31.879V739.1l33.9-33.9h12.113v16.15l-46.011,46.011Zm-18.589-31.879-46.01,46.011v2.019h12.112l33.9-33.9V735.481Zm-46.011,31.879V739.1l33.9-33.9h12.112v16.15l-46.011,46.011Zm-18.505-31.879v14.131l-33.9,33.9H1600v-2.019Z" transform="translate(-419.921 -151.598)" fill="#fff" fill-rule="evenodd"/>
        <rect id="Rectangle_38" data-name="Rectangle 38" width="6.056" height="308.701" transform="translate(1170.742 344.576)" fill="#f8981d"/>
        <g id="Group_7" data-name="Group 7" transform="translate(1158.63 344.576)">
          <path id="Path_35" data-name="Path 35" d="M1600,537.061l46.011-46.011V474.984H1633.9l-33.9,33.9v28.179Zm239.727-31.88-46.011,46.011v2.019h12.113l33.9-33.9V505.181Zm-46.011,31.88V508.8l33.9-33.9h12.113v16.15l-46.011,46.011Zm-18.59-31.88-46.011,46.011v2.019h12.113l33.9-33.9V505.181Zm-46.011,31.88V508.8l33.9-33.9h12.113v16.15l-46.011,46.011Zm-18.589-31.88-46.01,46.011v2.019h12.112l33.9-33.9V505.181Zm-46.011,31.88V508.8l33.9-33.9h12.112v16.15l-46.011,46.011Zm-18.505-31.88v14.131l-33.9,33.9H1600v-2.019Z" transform="translate(-1578.551 -459.591)" fill="#fff" fill-rule="evenodd"/>
          <path id="Path_36" data-name="Path 36" d="M1580.556,456.7h276.485a6.031,6.031,0,0,1,6.057,6.056h0a6.031,6.031,0,0,1-6.057,6.056H1580.556a6.031,6.031,0,0,1-6.056-6.056h0A6.14,6.14,0,0,1,1580.556,456.7Z" transform="translate(-1574.5 -456.7)" fill="#f78c1f" fill-rule="evenodd"/>
        </g>
        <rect id="Rectangle_39" data-name="Rectangle 39" width="255.793" height="290.533" transform="translate(777.337 344.576)" fill="#ffd69f"/>
        <path id="Path_37" data-name="Path 37" d="M1337.1,650.417v96.9h6.057V456.7H1337.1V650.417Z" transform="translate(-378.159 -112.124)" fill="#f78c1f" fill-rule="evenodd"/>
        <path id="Path_38" data-name="Path 38" d="M1260.3,650.417v96.9h6.056V456.7H1260.3V650.417Z" transform="translate(-365.96 -112.124)" fill="#f78c1f" fill-rule="evenodd"/>
        <path id="Path_39" data-name="Path 39" d="M1183.5,650.417v96.9h6.056V456.7H1183.5V650.417Z" transform="translate(-353.759 -112.124)" fill="#f78c1f" fill-rule="evenodd"/>
        <path id="Path_40" data-name="Path 40" d="M1367.32,650.417v6.056H1121.2v6.056h246.12v84.788h6.057V662.529h3.617v-6.056h-3.617V456.7h-6.057v6.056H1121.2v6.056h246.12v90.844H1121.2v6.056h246.12Z" transform="translate(-343.863 -112.124)" fill="#fcb64d" fill-rule="evenodd"/>
        <rect id="Rectangle_40" data-name="Rectangle 40" width="252.26" height="6.056" transform="translate(777.337 441.477)" fill="#f78c1f"/>
        <rect id="Rectangle_41" data-name="Rectangle 41" width="255.793" height="6.056" transform="translate(777.337 538.293)" fill="#f78c1f"/>
        <path id="Path_41" data-name="Path 41" d="M1384.417,747.317V456.7h6.056V747.233h-6.056Zm-64.516,0V456.7h6.056V747.233H1319.9Zm-64.6,0V456.7h6.056V747.233H1255.3Zm-64.6,0V456.7h6.056V747.233H1190.7Z" transform="translate(-354.903 -112.124)" fill="#fff" fill-rule="evenodd"/>
        <path id="Path_42" data-name="Path 42" d="M1125,537.061l46.01-46.011V474.984H1158.9l-33.9,33.9v28.179Zm239.727-31.88-46.011,46.011v2.019h12.112l33.9-33.9V505.181Zm-46.011,31.88V508.8l33.9-33.9h12.113v16.15l-46.011,46.011Zm-18.59-31.88-46.01,46.011v2.019h12.113l33.9-33.9V505.181Zm-46.01,31.88V508.8l33.9-33.9h12.113v16.15l-46.011,46.011Zm-18.505-31.88L1189.6,551.192v2.019h12.113l33.9-33.9V505.181Zm-46.011,31.88V508.8l33.9-33.9h12.113v16.15L1189.6,537.061Zm-18.59-31.88v14.131l-33.9,33.9H1125v-2.019Z" transform="translate(-344.467 -115.015)" fill="#fff" fill-rule="evenodd"/>
        <path id="Path_43" data-name="Path 43" d="M1125,652.261l46.01-46.011V590.1H1158.9L1125,624v28.263Zm239.727-31.88-46.011,46.011v2.019h12.112l33.9-33.9V620.382Zm-46.011,31.88V624l33.9-33.9h12.113v16.15l-46.011,46.011Zm-18.59-31.88-46.01,46.011v2.019h12.113l33.9-33.9V620.382Zm-46.01,31.88V624l33.9-33.9h12.113v16.15l-46.011,46.011Zm-18.505-31.88L1189.6,666.392v2.019h12.113l33.9-33.9V620.382Zm-46.011,31.88V624l33.9-33.9h12.113v16.15L1189.6,652.261Zm-18.59-31.88v14.131l-33.9,33.9H1125v-2.019Z" transform="translate(-344.467 -133.315)" fill="#fff" fill-rule="evenodd"/>
        <path id="Path_44" data-name="Path 44" d="M1125,767.361l46.01-46.011V705.2H1158.9L1125,739.1v28.263Zm239.727-31.879-46.011,46.011v2.019h12.112l33.9-33.9V735.481Zm-46.011,31.879V739.1l33.9-33.9h12.113v16.15l-46.011,46.011Zm-18.59-31.879-46.01,46.011v2.019h12.113l33.9-33.9V735.481Zm-46.01,31.879V739.1l33.9-33.9h12.113v16.15l-46.011,46.011Zm-18.505-31.879L1189.6,781.492v2.019h12.113l33.9-33.9V735.481ZM1189.6,767.361V739.1l33.9-33.9h12.113v16.15L1189.6,767.361Zm-18.59-31.879v14.131l-33.9,33.9H1125v-2.019Z" transform="translate(-344.467 -151.598)" fill="#fff" fill-rule="evenodd"/>
        <rect id="Rectangle_42" data-name="Rectangle 42" width="6.056" height="308.701" transform="translate(771.281 344.576)" fill="#f8981d"/>
        <path id="Path_45" data-name="Path 45" d="M1105.656,456.7h276.485a6.031,6.031,0,0,1,6.056,6.056h0a6.031,6.031,0,0,1-6.056,6.056H1105.656a6.031,6.031,0,0,1-6.056-6.056h0A6.031,6.031,0,0,1,1105.656,456.7Z" transform="translate(-340.432 -112.124)" fill="#f8981d" fill-rule="evenodd"/>
        <rect id="Rectangle_43" data-name="Rectangle 43" width="6.056" height="217.941" transform="translate(1029.513 435.42)" fill="#fff"/>
        <rect id="Rectangle_44" data-name="Rectangle 44" width="240.148" height="78.731" transform="translate(789.45 671.447)" fill="#ffd69f"/>
        <rect id="Rectangle_45" data-name="Rectangle 45" width="120.032" height="78.731" transform="translate(909.482 671.447)" fill="#ffd69f"/>
        <path id="Path_46" data-name="Path 46" d="M1375.648,859.7v6.056H1135.5V859.7Zm-107.92,50.469V881.906l16.15-16.15h28.263l-44.412,44.413Zm58.459-44.413L1267.644,924.3v2.019h12.113l60.563-60.563Zm-120.032,0L1147.613,924.3v2.019h12.112l60.563-60.563Zm-58.544,44.413,44.413-44.413h-28.263l-16.149,16.15v28.263Z" transform="translate(-346.134 -176.141)" fill="#fff" fill-rule="evenodd"/>
        <rect id="Rectangle_46" data-name="Rectangle 46" width="6.056" height="66.619" transform="translate(915.538 683.559)" fill="#f47c20"/>
        <rect id="Rectangle_47" data-name="Rectangle 47" width="6.056" height="66.619" transform="translate(795.422 683.559)" fill="#f8981d"/>
        <rect id="Rectangle_48" data-name="Rectangle 48" width="61.572" height="66.619" transform="translate(1106.226 683.559)" fill="#ffd69f"/>
        <path id="Path_47" data-name="Path 47" d="M1512.2,907.961V879.7l33.9-33.9h12.113v16.15Z" transform="translate(-405.974 -173.933)" fill="#fff" fill-rule="evenodd"/>
        <rect id="Rectangle_49" data-name="Rectangle 49" width="61.572" height="78.731" transform="translate(1041.626 671.447)" fill="#ffd69f"/>
        <rect id="Rectangle_50" data-name="Rectangle 50" width="136.182" height="6.056" transform="translate(1047.682 671.447)" fill="#0095da"/>
        <rect id="Rectangle_51" data-name="Rectangle 51" width="6.056" height="66.619" transform="translate(1164.686 683.559)" fill="#f47c20"/>
        <rect id="Rectangle_52" data-name="Rectangle 52" width="6.056" height="66.619" transform="translate(1097.142 683.559)" fill="#f47c20"/>
        <path id="Path_48" data-name="Path 48" d="M1444.653,912.313l44.413-44.413H1460.8l-16.15,16.15L1435.4,893.3v28.263Z" transform="translate(-393.774 -177.444)" fill="#fff" fill-rule="evenodd"/>
        <path id="Path_49" data-name="Path 49" d="M1492.411,881.8,1446.4,927.811v2.019h12.112l28.01-28.01.253-.252h0l5.636-5.636Z" transform="translate(-395.522 -179.652)" fill="#fff" fill-rule="evenodd"/>
        <path id="Path_50" data-name="Path 50" d="M1524.313,928.607l40.291-40.375V874.1l-52.4,52.488v2.019Z" transform="translate(-405.974 -178.429)" fill="#fff" fill-rule="evenodd"/>
        <rect id="Rectangle_53" data-name="Rectangle 53" width="6.056" height="66.619" transform="translate(1035.57 683.559)" fill="#00aeef"/>
        <rect id="Rectangle_54" data-name="Rectangle 54" width="6.056" height="66.619" transform="translate(1035.57 683.559)" fill="#f47c20"/>
        <path id="Path_51" data-name="Path 51" d="M1355.056,857.413H1763.1V845.3H1135.6v12.113h219.456Z" transform="translate(-346.15 -173.853)" fill="#f8981d" fill-rule="evenodd"/>
        <path id="Path_52" data-name="Path 52" d="M1134.457,844.156v78.732H1128.4V838.1h639.61v84.788h-6.057V844.156Z" transform="translate(-345.007 -172.71)" fill="#da6327" fill-rule="evenodd"/>
        <path id="Path_53" data-name="Path 53" d="M1135.6,852.5h6.056v72.675H1135.6V852.5Zm627.5,0h-6.057v72.675h6.057V852.5Zm-120.032,2.355h-6.056v70.32h6.056v-70.32Zm-126.172,3.7v66.619h6.056V858.556Zm-64.516-3.954h-6.056v70.572h6.056V854.6Zm-70.656,3.954v66.619h-6.056V858.556Zm-126.088-3.7h6.056v70.32h-6.056Z" transform="translate(-346.15 -174.997)" fill="#f8981d" fill-rule="evenodd"/>
        <path id="Path_54" data-name="Path 54" d="M1896,471.1V749.6h6.056V471.1H1896Z" transform="translate(-466.942 -114.411)" fill="#fff" fill-rule="evenodd"/>
        <rect id="Rectangle_55" data-name="Rectangle 55" width="426.378" height="6.645" transform="translate(281.648 750.178)" fill="#f47c20"/>
        <rect id="Rectangle_56" data-name="Rectangle 56" width="478.277" height="13.29" transform="translate(281.648 756.823)" fill="#da6327"/>
        <rect id="Rectangle_57" data-name="Rectangle 57" width="450.771" height="6.645" transform="translate(677.409 750.178)" fill="#f47c20"/>
        <path id="Path_55" data-name="Path 55" d="M785.42,213.9a43.735,43.735,0,0,1,40.543,27.253,30.128,30.128,0,0,1,28.094,30.029v10.683h18.589a2.944,2.944,0,1,1,0,5.888H829.665a2.944,2.944,0,0,1,0-5.888h18.59V271.182a23.875,23.875,0,0,0-7.15-17.16,24.37,24.37,0,0,0-17.16-7.15h-2.019l-.673-1.935a38.4,38.4,0,0,0-13.879-18.421,37.565,37.565,0,0,0-21.87-6.9,37.719,37.719,0,0,0-35.749,25.319l-.673,1.935h-2.019a23.875,23.875,0,0,0-17.159,7.15,24.3,24.3,0,0,0-6.982,14.3h39.87a2.944,2.944,0,1,1,0,5.888H676.744a2.944,2.944,0,0,1,0-5.888h40.123a30.066,30.066,0,0,1,27.926-27.169A43.735,43.735,0,0,1,785.42,213.9Zm-65.778,66.114a2.944,2.944,0,1,0,0,5.888h85.881a2.944,2.944,0,1,0,0-5.888Z" transform="translate(-272.793 -73.554)" fill="#ffd69f"/>
        <rect id="Rectangle_58" data-name="Rectangle 58" width="253.774" height="378.349" transform="translate(437.345 257.686)" fill="#ffd69f"/>
        <path id="Path_56" data-name="Path 56" d="M931.2,634.562v96.059h5.972V346.3H931.2V634.562Z" transform="translate(-313.681 -94.586)" fill="#f78c1f" fill-rule="evenodd"/>
        <path id="Path_57" data-name="Path 57" d="M855,634.562v96.059h6.056V346.3H855V634.562Z" transform="translate(-301.576 -94.586)" fill="#f78c1f" fill-rule="evenodd"/>
        <path id="Path_58" data-name="Path 58" d="M778.9,634.562v96.059h5.972V346.3H778.9V634.562Z" transform="translate(-289.488 -94.586)" fill="#f78c1f" fill-rule="evenodd"/>
        <path id="Path_59" data-name="Path 59" d="M961.27,634.562v5.972H717v6.056H961.27v84.031h5.972V646.59h3.533v-6.056h-3.533V346.3H961.27v5.972H717v6.056H961.27v90.087H717v5.972H961.27v90.087H717v5.972H961.27Z" transform="translate(-279.655 -94.586)" fill="#fcb64d" fill-rule="evenodd"/>
        <rect id="Rectangle_59" data-name="Rectangle 59" width="64.095" height="78.059" transform="translate(373.334 672.12)" fill="#ffd69f"/>
        <path id="Path_60" data-name="Path 60" d="M640.9,908.256v-28.01L674.546,846.6H686.49v15.982Z" transform="translate(-267.567 -174.06)" fill="#fff" fill-rule="evenodd"/>
        <rect id="Rectangle_60" data-name="Rectangle 60" width="64.095" height="78.059" transform="translate(309.238 672.12)" fill="#ffd69f"/>
        <path id="Path_61" data-name="Path 61" d="M717,346.3h58.039v5.972H717V346.3Zm64.1,0h58.039v5.972H781.1V346.3Zm64.011,0h58.039v5.972H845.107V346.3Zm64.1,0h58.039v5.972H909.2Z" transform="translate(-279.655 -94.586)" fill="#f8981d" fill-rule="evenodd"/>
        <rect id="Rectangle_61" data-name="Rectangle 61" width="253.774" height="5.972" transform="translate(437.345 347.773)" fill="#f78c1f"/>
        <rect id="Rectangle_62" data-name="Rectangle 62" width="253.774" height="5.972" transform="translate(437.345 443.916)" fill="#f78c1f"/>
        <rect id="Rectangle_63" data-name="Rectangle 63" width="253.774" height="5.972" transform="translate(437.345 539.975)" fill="#f78c1f"/>
        <rect id="Rectangle_64" data-name="Rectangle 64" width="262.27" height="18.001" transform="translate(431.373 636.034)" fill="#f8981d"/>
        <path id="Path_62" data-name="Path 62" d="M561.3,920.759V842.7h366.32v78.059h18V824.7H543.3v96.059Z" transform="translate(-252.063 -170.581)" fill="#f47c20" fill-rule="evenodd"/>
        <rect id="Rectangle_65" data-name="Rectangle 65" width="3.028" height="10.514" transform="translate(352.305 711.906)" fill="#8ed8f8"/>
        <rect id="Rectangle_66" data-name="Rectangle 66" width="135.088" height="5.972" transform="translate(309.238 672.12)" fill="#0095da"/>
        <rect id="Rectangle_67" data-name="Rectangle 67" width="5.972" height="66.03" transform="translate(425.317 684.148)" fill="#f8981d"/>
        <rect id="Rectangle_68" data-name="Rectangle 68" width="5.972" height="66.03" transform="translate(361.305 684.148)" fill="#f8981d"/>
        <rect id="Rectangle_69" data-name="Rectangle 69" width="116.078" height="5.972" transform="translate(309.238 684.148)" fill="#f8981d"/>
        <rect id="Rectangle_70" data-name="Rectangle 70" width="5.972" height="69.984" transform="translate(367.277 680.195)" fill="#f47c20"/>
        <rect id="Rectangle_71" data-name="Rectangle 71" width="238.213" height="78.059" transform="translate(437.345 672.12)" fill="#ffd69f"/>
        <rect id="Rectangle_72" data-name="Rectangle 72" width="119.107" height="78.059" transform="translate(437.345 672.12)" fill="#ffd69f"/>
        <rect id="Rectangle_73" data-name="Rectangle 73" width="238.213" height="5.972" transform="translate(437.345 684.148)" fill="#f8981d"/>
        <rect id="Rectangle_74" data-name="Rectangle 74" width="5.972" height="69.815" transform="translate(550.479 680.363)" fill="#f47c20"/>
        <rect id="Rectangle_75" data-name="Rectangle 75" width="5.972" height="72.086" transform="translate(669.586 678.092)" fill="#f47c20"/>
        <rect id="Rectangle_76" data-name="Rectangle 76" width="5.972" height="66.03" transform="translate(544.423 684.148)" fill="#f8981d"/>
        <rect id="Rectangle_77" data-name="Rectangle 77" width="5.972" height="66.03" transform="translate(663.53 684.148)" fill="#f47c20"/>
        <path id="Path_63" data-name="Path 63" d="M978.2,730.6V346.2h5.972V730.6Zm-64.1,0V346.2h5.972V730.6Zm-64.012,0V346.2h5.972V730.6Zm-64.1,0V346.2h5.972V730.6Z" transform="translate(-290.616 -94.571)" fill="#fff" fill-rule="evenodd"/>
        <path id="Path_64" data-name="Path 64" d="M563.572,923.015H557.6V838.9H935.949v84.115h-6.056V844.956H563.572Z" transform="translate(-254.334 -172.837)" fill="#da6327" fill-rule="evenodd"/>
        <path id="Path_65" data-name="Path 65" d="M686.835,858.129v66.03h5.972v-66.03H931.02V846.1H564.7v12.029Z" transform="translate(-255.462 -173.981)" fill="#f47c20" fill-rule="evenodd"/>
        <path id="Path_66" data-name="Path 66" d="M720.8,426.056l45.674-45.674V364.4H754.446L720.8,398.046v28.01Zm128.107,0,45.674-45.674V364.4H882.553l-33.646,33.646v28.01Zm45.674-31.627v14.047l-33.646,33.646H848.907V440.1l45.674-45.674ZM913,426.056l45.674-45.674V364.4H946.648L913,398.046v28.01Zm45.674-31.627v14.047l-33.646,33.646H913V440.1l45.674-45.674Zm-128.191,0-45.59,45.59v2.019h12.028l33.646-33.646-.084-13.963ZM784.9,426.056v-28.01L818.542,364.4H830.57v15.982L784.9,426.056Zm-18.421-31.627v14.047l-33.646,33.646H720.8V440.1Z" transform="translate(-280.259 -97.462)" fill="#fff" fill-rule="evenodd"/>
        <path id="Path_67" data-name="Path 67" d="M720.8,540.256l45.674-45.674V478.6H754.446L720.8,512.246v28.01Zm237.877-31.627L913,554.3v2.019h12.029l33.646-33.646V508.629ZM913,540.256v-28.01L946.648,478.6h12.028v15.982L913,540.256Zm-18.421-31.627L848.907,554.3v2.019h12.028l33.646-33.646V508.629Zm-45.674,31.627v-28.01L882.553,478.6h12.028v15.982l-45.674,45.674Zm-18.421-31.627L784.9,554.3v2.019h12.028l33.646-33.646-.084-14.047ZM784.9,540.256v-28.01L818.542,478.6H830.57v15.982L784.9,540.256Zm-18.421-31.627v14.047l-33.646,33.646H720.8V554.3Z" transform="translate(-280.259 -115.603)" fill="#fff" fill-rule="evenodd"/>
        <path id="Path_68" data-name="Path 68" d="M720.8,654.556l45.674-45.674V592.9H754.446L720.8,626.546v28.01Zm237.877-31.711L913,668.519v2.019h12.029l33.646-33.646V622.845ZM913,654.556v-28.01L946.648,592.9h12.028v15.982L913,654.556Zm-18.421-31.711-45.674,45.674v2.019h12.028l33.646-33.646V622.845Zm-45.674,31.711v-28.01L882.553,592.9h12.028v15.982l-45.674,45.674Zm-18.421-31.711L784.9,668.519v2.019h12.028l33.646-33.646-.084-14.047ZM784.9,654.556v-28.01L818.542,592.9H830.57v15.982L784.9,654.556Zm-18.421-31.711v14.047l-33.646,33.646H720.8v-2.019Z" transform="translate(-280.259 -133.759)" fill="#fff" fill-rule="evenodd"/>
        <path id="Path_69" data-name="Path 69" d="M720.8,768.756l45.674-45.674V707.1H754.446L720.8,740.746v28.01Zm237.877-31.627L913,782.719v2.019h12.029l33.646-33.646V737.129ZM913,768.756v-28.01L946.648,707.1h12.028v15.982L913,768.756Zm-18.421-31.627-45.674,45.59v2.019h12.028l33.646-33.646V737.129Zm-45.674,31.627v-28.01L882.553,707.1h12.028v15.982l-45.674,45.674Zm-18.421-31.627-45.59,45.59v2.019h12.028l33.646-33.646-.084-13.963ZM784.9,768.756v-28.01L818.542,707.1H830.57v15.982L784.9,768.756Zm-18.421-31.627v13.963l-33.646,33.646H720.8v-2.019Z" transform="translate(-280.259 -151.9)" fill="#fff" fill-rule="evenodd"/>
        <path id="Path_70" data-name="Path 70" d="M571.8,911.576,615.876,867.5h-28.01L571.8,883.566Z" transform="translate(-256.59 -177.38)" fill="#fff" fill-rule="evenodd"/>
        <path id="Path_71" data-name="Path 71" d="M617.474,882.2,571.8,927.875v2.019h12.029l27.758-27.758.252-.253h0l5.636-5.635Z" transform="translate(-256.59 -179.715)" fill="#fff" fill-rule="evenodd"/>
        <path id="Path_72" data-name="Path 72" d="M652.845,928.686l40.039-40.039V874.6L640.9,926.667v2.019Z" transform="translate(-267.567 -178.508)" fill="#ffd69f" fill-rule="evenodd"/>
        <path id="Path_73" data-name="Path 73" d="M717,911.576v-28.01L733.066,867.5h28.01Z" transform="translate(-279.655 -177.38)" fill="#fff" fill-rule="evenodd"/>
        <path id="Path_74" data-name="Path 74" d="M775.039,867.5,717,925.539v2.019h12.028L789.087,867.5Z" transform="translate(-279.655 -177.38)" fill="#fff" fill-rule="evenodd"/>
        <path id="Path_75" data-name="Path 75" d="M858.6,911.576v-28.01L874.666,867.5h28.01Z" transform="translate(-302.148 -177.38)" fill="#fff" fill-rule="evenodd"/>
        <path id="Path_76" data-name="Path 76" d="M916.639,867.5,858.6,925.539v2.019h12.029L930.687,867.5Z" transform="translate(-302.148 -177.38)" fill="#fff" fill-rule="evenodd"/>
        <g id="Group_8" data-name="Group 8" transform="translate(447.607 728.384)">
          <path id="Path_77" data-name="Path 77" d="M808.9,914.092c9.673-3.028,17.5.673,17.5,5.215s-7.823,8.243-17.5,8.243-17.5-3.7-17.5-8.243S799.223,911.064,808.9,914.092Z" transform="translate(-739.081 -912.99)" fill="#77c585" fill-rule="evenodd"/>
          <rect id="Rectangle_78" data-name="Rectangle 78" width="34.908" height="14.552" transform="translate(52.319 7.242)" fill="#e45325"/>
          <path id="Path_78" data-name="Path 78" d="M949.6,914.092c9.673-3.028,17.5.673,17.5,5.215s-7.823,8.243-17.5,8.243-17.5-3.7-17.5-8.243C932.184,914.765,940.007,911.064,949.6,914.092Z" transform="translate(-761.431 -912.99)" fill="#77c585" fill-rule="evenodd"/>
          <rect id="Rectangle_79" data-name="Rectangle 79" width="34.908" height="14.552" transform="translate(170.753 7.242)" fill="#e45325"/>
          <path id="Path_79" data-name="Path 79" d="M746.7,914.092c9.673-3.028,17.5.673,17.5,5.215s-7.823,8.243-17.5,8.243-17.5-3.7-17.5-8.243S737.023,911.064,746.7,914.092Z" transform="translate(-729.2 -912.99)" fill="#77c585" fill-rule="evenodd"/>
          <rect id="Rectangle_80" data-name="Rectangle 80" width="34.908" height="14.552" transform="translate(0 7.242)" fill="#e45325"/>
          <path id="Path_80" data-name="Path 80" d="M887.4,914.092c9.673-3.028,17.5.673,17.5,5.215s-7.822,8.243-17.5,8.243-17.5-3.7-17.5-8.243C869.984,914.765,877.807,911.064,887.4,914.092Z" transform="translate(-751.55 -912.99)" fill="#77c585" fill-rule="evenodd"/>
          <rect id="Rectangle_81" data-name="Rectangle 81" width="34.908" height="14.552" transform="translate(118.434 7.242)" fill="#e45325"/>
        </g>
        <g id="Group_9" data-name="Group 9" transform="translate(814.432 728.384)">
          <path id="Path_81" data-name="Path 81" d="M1245,914.092c9.673-3.028,17.5.673,17.5,5.215s-7.823,8.243-17.5,8.243-17.5-3.7-17.5-8.243C1227.584,914.765,1235.407,911.064,1245,914.092Z" transform="translate(-1175.18 -912.99)" fill="#77c585" fill-rule="evenodd"/>
          <rect id="Rectangle_82" data-name="Rectangle 82" width="34.908" height="14.552" transform="translate(52.404 7.242)" fill="#e45325"/>
          <path id="Path_82" data-name="Path 82" d="M1385.8,914.092c9.673-3.028,17.5.673,17.5,5.215s-7.823,8.243-17.5,8.243-17.5-3.7-17.5-8.243S1376.123,911.064,1385.8,914.092Z" transform="translate(-1197.547 -912.99)" fill="#77c585" fill-rule="evenodd"/>
          <rect id="Rectangle_83" data-name="Rectangle 83" width="34.908" height="14.552" transform="translate(170.837 7.242)" fill="#e45325"/>
          <path id="Path_83" data-name="Path 83" d="M1182.8,914.092c9.673-3.028,17.5.673,17.5,5.215s-7.823,8.243-17.5,8.243-17.5-3.7-17.5-8.243C1165.384,914.765,1173.207,911.064,1182.8,914.092Z" transform="translate(-1165.3 -912.99)" fill="#77c585" fill-rule="evenodd"/>
          <rect id="Rectangle_84" data-name="Rectangle 84" width="34.908" height="14.552" transform="translate(0.084 7.242)" fill="#e45325"/>
          <path id="Path_84" data-name="Path 84" d="M1323.6,914.092c9.673-3.028,17.5.673,17.5,5.215s-7.823,8.243-17.5,8.243-17.5-3.7-17.5-8.243S1313.923,911.064,1323.6,914.092Z" transform="translate(-1187.666 -912.99)" fill="#77c585" fill-rule="evenodd"/>
          <rect id="Rectangle_85" data-name="Rectangle 85" width="34.908" height="14.552" transform="translate(118.434 7.242)" fill="#e45325"/>
        </g>
        <g id="Group_10" data-name="Group 10" transform="translate(1189.584 728.384)">
          <path id="Path_85" data-name="Path 85" d="M1691,914.092c9.673-3.028,17.5.673,17.5,5.215s-7.823,8.243-17.5,8.243-17.5-3.7-17.5-8.243C1673.584,914.765,1681.407,911.064,1691,914.092Z" transform="translate(-1621.18 -912.99)" fill="#77c585" fill-rule="evenodd"/>
          <rect id="Rectangle_86" data-name="Rectangle 86" width="34.908" height="14.552" transform="translate(52.404 7.242)" fill="#e45325"/>
          <path id="Path_86" data-name="Path 86" d="M1831.8,914.092c9.673-3.028,17.5.673,17.5,5.215s-7.823,8.243-17.5,8.243-17.5-3.7-17.5-8.243C1814.384,914.765,1822.123,911.064,1831.8,914.092Z" transform="translate(-1643.547 -912.99)" fill="#77c585" fill-rule="evenodd"/>
          <rect id="Rectangle_87" data-name="Rectangle 87" width="34.908" height="14.552" transform="translate(170.837 7.242)" fill="#e45325"/>
          <path id="Path_87" data-name="Path 87" d="M1628.8,914.092c9.673-3.028,17.5.673,17.5,5.215s-7.823,8.243-17.5,8.243-17.5-3.7-17.5-8.243C1611.384,914.765,1619.207,911.064,1628.8,914.092Z" transform="translate(-1611.3 -912.99)" fill="#77c585" fill-rule="evenodd"/>
          <rect id="Rectangle_88" data-name="Rectangle 88" width="34.908" height="14.552" transform="translate(0.084 7.242)" fill="#e45325"/>
          <path id="Path_88" data-name="Path 88" d="M1769.6,914.092c9.673-3.028,17.5.673,17.5,5.215s-7.823,8.243-17.5,8.243-17.5-3.7-17.5-8.243S1759.923,911.064,1769.6,914.092Z" transform="translate(-1633.666 -912.99)" fill="#77c585" fill-rule="evenodd"/>
          <rect id="Rectangle_89" data-name="Rectangle 89" width="34.908" height="14.552" transform="translate(118.518 7.242)" fill="#e45325"/>
        </g>
        <rect id="Rectangle_90" data-name="Rectangle 90" width="5.972" height="384.405" transform="translate(431.373 251.714)" fill="#e6e7e8"/>
        <rect id="Rectangle_91" data-name="Rectangle 91" width="30.534" height="13.29" transform="translate(677.409 756.823)" fill="#f68c1f"/>
        <rect id="Rectangle_92" data-name="Rectangle 92" width="49.375" height="13.29" transform="translate(759 756.823)" fill="#f68c1f"/>
        <path id="Path_89" data-name="Path 89" d="M586.3,946.8h35.412v13.29H586.3V946.8Zm283.383,0H905.1v13.29H869.683V946.8Zm-212.558,0h35.412v13.29H657.125V946.8Zm70.909,0h35.412v13.29H728.034V946.8Zm70.825,0h35.412v13.29H798.858Z" transform="translate(-258.893 -189.977)" fill="#f68c1f" fill-rule="evenodd"/>
        <rect id="Rectangle_93" data-name="Rectangle 93" width="441.519" height="6.645" transform="translate(1502.575 750.178)" fill="#f47c20"/>
        <rect id="Rectangle_94" data-name="Rectangle 94" width="493.418" height="13.29" transform="translate(1450.592 756.823)" fill="#da6327"/>
        <rect id="Rectangle_95" data-name="Rectangle 95" width="450.771" height="6.645" transform="translate(1082.338 750.178)" fill="#f47c20"/>
        <path id="Path_90" data-name="Path 90" d="M2195.3,192a43.732,43.732,0,0,1,40.542,27.253,30.066,30.066,0,0,1,27.927,27.169h40.207a2.944,2.944,0,1,1,0,5.888H2218.1a2.944,2.944,0,1,1,0-5.888h39.871a24.439,24.439,0,0,0-24.142-21.449h-2.019l-.673-1.935a38.4,38.4,0,0,0-13.879-18.421,37.564,37.564,0,0,0-21.87-6.9,37.72,37.72,0,0,0-35.749,25.319l-.672,1.935h-2.019a23.876,23.876,0,0,0-17.16,7.15,24.371,24.371,0,0,0-7.149,17.159v10.851h18.589a2.944,2.944,0,0,1,0,5.888h-42.983a2.944,2.944,0,0,1,0-5.888h18.589V249.45a30.129,30.129,0,0,1,28.094-30.029,43.681,43.681,0,0,1,15.309-19.262A42.15,42.15,0,0,1,2195.3,192Zm-20.1,66.114a2.944,2.944,0,1,0,0,5.888h85.881a2.944,2.944,0,0,0,0-5.888Z" transform="translate(-500.189 -70.076)" fill="#fbd9a8"/>
        <rect id="Rectangle_96" data-name="Rectangle 96" width="253.774" height="378.349" transform="translate(1519.398 257.686)" fill="#ffd69f"/>
        <path id="Path_91" data-name="Path 91" d="M2012.989,634.562v5.972h244.186v6.056H2012.989v84.031h-6.057V646.59H2003.4v-6.056h3.532V346.3h6.057v5.972h244.186v6.056H2012.989v90.087h244.186v5.972H2012.989v90.087h244.186v5.972H2012.989Z" transform="translate(-484.002 -94.586)" fill="#fcb64d" fill-rule="evenodd"/>
        <rect id="Rectangle_97" data-name="Rectangle 97" width="64.095" height="78.059" transform="translate(1773.173 672.12)" fill="#ffd69f"/>
        <path id="Path_92" data-name="Path 92" d="M2372.675,908.256v-28.01L2339.029,846.6H2327v15.982Z" transform="translate(-535.407 -174.06)" fill="#fff" fill-rule="evenodd"/>
        <rect id="Rectangle_98" data-name="Rectangle 98" width="64.095" height="78.059" transform="translate(1837.268 672.12)" fill="#ffd69f"/>
        <path id="Path_93" data-name="Path 93" d="M2257.843,346.3v5.972H2199.8V346.3Zm-64.012,0v5.972h-58.039V346.3Zm-64.1,0v5.972H2071.7V346.3Zm-64.1,5.972H2007.6V346.3h58.04Z" transform="translate(-484.669 -94.586)" fill="#f78c1f" fill-rule="evenodd"/>
        <rect id="Rectangle_99" data-name="Rectangle 99" width="253.774" height="5.972" transform="translate(1519.398 347.773)" fill="#f78c1f"/>
        <rect id="Rectangle_100" data-name="Rectangle 100" width="253.774" height="5.972" transform="translate(1519.398 443.916)" fill="#f78c1f"/>
        <rect id="Rectangle_101" data-name="Rectangle 101" width="253.774" height="5.972" transform="translate(1519.398 539.975)" fill="#f78c1f"/>
        <rect id="Rectangle_102" data-name="Rectangle 102" width="262.27" height="18.001" transform="translate(1516.959 636.034)" fill="#f47c20"/>
        <path id="Path_94" data-name="Path 94" d="M2384.821,920.759V842.7H2018.5v78.059h-18V824.7h402.4v96.059Z" transform="translate(-483.542 -170.581)" fill="#f47c20" fill-rule="evenodd"/>
        <rect id="Rectangle_103" data-name="Rectangle 103" width="135.088" height="5.972" transform="translate(1766.191 672.12)" fill="#0095da"/>
        <rect id="Rectangle_104" data-name="Rectangle 104" width="5.972" height="66.03" transform="translate(1779.229 684.148)" fill="#f47c20"/>
        <rect id="Rectangle_105" data-name="Rectangle 105" width="5.972" height="66.03" transform="translate(1843.24 684.148)" fill="#f47c20"/>
        <rect id="Rectangle_106" data-name="Rectangle 106" width="116.078" height="5.972" transform="translate(1785.201 684.148)" fill="#f47c20"/>
        <rect id="Rectangle_107" data-name="Rectangle 107" width="5.972" height="66.03" transform="translate(1837.268 684.148)" fill="#f8981d"/>
        <rect id="Rectangle_108" data-name="Rectangle 108" width="238.213" height="78.059" transform="translate(1534.959 672.12)" fill="#ffd69f"/>
        <rect id="Rectangle_109" data-name="Rectangle 109" width="119.107" height="78.059" transform="translate(1654.066 672.12)" fill="#ffd69f"/>
        <rect id="Rectangle_110" data-name="Rectangle 110" width="238.213" height="5.972" transform="translate(1534.959 684.148)" fill="#f47c20"/>
        <rect id="Rectangle_111" data-name="Rectangle 111" width="5.972" height="66.03" transform="translate(1654.066 684.148)" fill="#f8981d"/>
        <rect id="Rectangle_112" data-name="Rectangle 112" width="5.972" height="72.086" transform="translate(1534.959 678.092)" fill="#f8981d"/>
        <rect id="Rectangle_113" data-name="Rectangle 113" width="5.972" height="66.03" transform="translate(1660.122 684.148)" fill="#f47c20"/>
        <rect id="Rectangle_114" data-name="Rectangle 114" width="5.972" height="66.03" transform="translate(1541.016 684.148)" fill="#f47c20"/>
        <path id="Path_95" data-name="Path 95" d="M2006.473,730.6H2000.5V346.2h5.972V730.6Zm64.094,0H2064.6V346.2h5.972V730.6Zm64.012,0h-5.973V346.2h5.973V730.6Zm58.123,0V346.2h5.972V730.6Z" transform="translate(-483.542 -94.571)" fill="#f78c1f" fill-rule="evenodd"/>
        <path id="Path_96" data-name="Path 96" d="M2387.093,923.015h6.057V838.9H2014.8v84.115h5.972V844.956h366.32Z" transform="translate(-485.813 -172.837)" fill="#da6327" fill-rule="evenodd"/>
        <path id="Path_97" data-name="Path 97" d="M2266.17,858.129v66.03h-6.056v-66.03H2021.9V846.1h366.32v12.029Z" transform="translate(-486.941 -173.981)" fill="#f8981d" fill-rule="evenodd"/>
        <path id="Path_98" data-name="Path 98" d="M2206.7,914.092c-9.672-3.028-17.5.673-17.5,5.215s7.823,8.243,17.5,8.243,17.5-3.7,17.5-8.243C2224.108,914.765,2216.285,911.064,2206.7,914.092Z" transform="translate(-513.517 -184.606)" fill="#77c585" fill-rule="evenodd"/>
        <rect id="Rectangle_115" data-name="Rectangle 115" width="34.908" height="14.552" transform="translate(1675.684 735.626)" fill="#e45325"/>
        <path id="Path_99" data-name="Path 99" d="M2065.9,914.092c-9.673-3.028-17.5.673-17.5,5.215s7.823,8.243,17.5,8.243,17.5-3.7,17.5-8.243S2075.569,911.064,2065.9,914.092Z" transform="translate(-491.151 -184.606)" fill="#77c585" fill-rule="evenodd"/>
        <rect id="Rectangle_116" data-name="Rectangle 116" width="34.908" height="14.552" transform="translate(1557.334 735.626)" fill="#e45325"/>
        <path id="Path_100" data-name="Path 100" d="M2256.377,426.056v-28.01L2222.731,364.4H2210.7v15.982l45.675,45.674Zm-128.108,0v-28.01L2094.624,364.4H2082.6v15.982l45.674,45.674ZM2082.6,394.429,2128.27,440.1v2.019h-12.028L2082.6,408.476V394.429Zm-18.42,31.627v-28.01L2030.529,364.4H2018.5v15.982l45.675,45.674Zm-45.59-31.627,45.673,45.674v2.019H2052.23l-33.646-33.646V394.429Zm128.106,0v14.047l33.646,33.646h12.028V440.1l-45.675-45.674Zm45.675,31.627-45.675-45.674V364.4h12.028l33.646,33.646v28.01Zm64.012,13.963v2.019h-12.029L2210.7,408.392V394.345Z" transform="translate(-486.401 -97.462)" fill="#fff" fill-rule="evenodd"/>
        <path id="Path_101" data-name="Path 101" d="M2256.377,540.256v-28.01L2222.731,478.6H2210.7v15.982l45.675,45.674Zm-237.792-31.627v14.047l33.645,33.646h12.028V554.3l-45.674-45.674Zm45.59,31.627L2018.5,494.582V478.6h12.029l33.646,33.646v28.01Zm18.42-31.627v14.047l33.646,33.646h12.028V554.3L2082.6,508.629Zm45.674,31.627L2082.6,494.582V478.6h12.029l33.645,33.646v28.01Zm18.421-31.627v14.047l33.646,33.646h12.028V554.3l-45.675-45.674Zm45.675,31.627-45.675-45.674V478.6h12.028l33.646,33.646v28.01Zm64.012,14.047v2.019h-12.029L2210.7,522.676V508.629Z" transform="translate(-486.401 -115.603)" fill="#fff" fill-rule="evenodd"/>
        <path id="Path_102" data-name="Path 102" d="M2256.377,654.556v-28.01L2222.731,592.9H2210.7v15.982l45.675,45.674Zm-237.792-31.711v14.047l33.645,33.646h12.028v-2.019l-45.674-45.674Zm45.59,31.711L2018.5,608.882V592.9h12.029l33.646,33.646v28.01Zm18.42-31.711v14.047l33.646,33.646h12.028v-2.019L2082.6,622.845Zm45.674,31.711L2082.6,608.882V592.9h12.029l33.645,33.646v28.01Zm18.421-31.711v14.047l33.646,33.646h12.028v-2.019l-45.675-45.674Zm45.675,31.711-45.675-45.674V592.9h12.028l33.646,33.646v28.01Zm64.012,13.963v2.019h-12.029L2210.7,636.892V622.845Z" transform="translate(-486.401 -133.759)" fill="#fff" fill-rule="evenodd"/>
        <path id="Path_103" data-name="Path 103" d="M2256.377,768.756v-28.01L2222.731,707.1H2210.7v15.982l45.675,45.674Zm-237.792-31.627v13.963l33.645,33.646h12.028v-2.019l-45.674-45.59Zm45.59,31.627L2018.5,723.082V707.1h12.029l33.646,33.646v28.01Zm18.42-31.627v13.963l33.646,33.646h12.028v-2.019l-45.674-45.59Zm45.674,31.627L2082.6,723.082V707.1h12.029l33.645,33.646v28.01Zm18.421-31.627v13.963l33.646,33.646h12.028v-2.019l-45.675-45.59Zm45.675,31.627-45.675-45.674V707.1h12.028l33.646,33.646v28.01Zm64.012,13.963v2.019h-12.029L2210.7,751.092V737.129Z" transform="translate(-486.401 -151.9)" fill="#fff" fill-rule="evenodd"/>
        <path id="Path_104" data-name="Path 104" d="M2441.977,911.576,2397.9,867.5h28.011l16.066,16.066Z" transform="translate(-546.668 -177.38)" fill="#fff" fill-rule="evenodd"/>
        <path id="Path_105" data-name="Path 105" d="M2401.636,901.883,2396,896.247V882.2l45.673,45.674v2.019h-12.028l-27.758-27.758,2.775-10.514h0" transform="translate(-546.368 -179.715)" fill="#fff" fill-rule="evenodd"/>
        <path id="Path_106" data-name="Path 106" d="M2359.438,928.686,2319.4,888.647V874.6l52.068,52.067v2.019Z" transform="translate(-534.198 -178.508)" fill="#fff" fill-rule="evenodd"/>
        <path id="Path_107" data-name="Path 107" d="M2296.793,911.576v-28.01L2280.811,867.5H2252.8Z" transform="translate(-523.62 -177.38)" fill="#fff" fill-rule="evenodd"/>
        <path id="Path_108" data-name="Path 108" d="M2233.463,867.5l58.04,58.039v2.019h-11.945L2219.5,867.5Z" transform="translate(-518.33 -177.38)" fill="#fff" fill-rule="evenodd"/>
        <path id="Path_109" data-name="Path 109" d="M2268.9,914.092c-9.673-3.028-17.5.673-17.5,5.215s7.823,8.243,17.5,8.243,17.5-3.7,17.5-8.243C2286.308,914.765,2278.485,911.064,2268.9,914.092Z" transform="translate(-523.397 -184.606)" fill="#77c585" fill-rule="evenodd"/>
        <rect id="Rectangle_117" data-name="Rectangle 117" width="34.908" height="14.552" transform="translate(1728.003 735.626)" fill="#e45325"/>
        <path id="Path_110" data-name="Path 110" d="M2155.192,911.576v-28.01L2139.211,867.5H2111.2Z" transform="translate(-501.127 -177.38)" fill="#fff" fill-rule="evenodd"/>
        <path id="Path_111" data-name="Path 111" d="M2091.864,867.5l58.04,58.039v2.019h-11.944L2077.9,867.5Z" transform="translate(-495.836 -177.38)" fill="#fff" fill-rule="evenodd"/>
        <path id="Path_112" data-name="Path 112" d="M2128.1,914.092c-9.672-3.028-17.5.673-17.5,5.215s7.823,8.243,17.5,8.243,17.5-3.7,17.5-8.243S2137.771,911.064,2128.1,914.092Z" transform="translate(-501.031 -184.606)" fill="#77c585" fill-rule="evenodd"/>
        <rect id="Rectangle_118" data-name="Rectangle 118" width="34.908" height="14.552" transform="translate(1609.653 735.626)" fill="#e45325"/>
        <rect id="Rectangle_119" data-name="Rectangle 119" width="5.972" height="384.405" transform="translate(1773.173 251.714)" fill="#e6e7e8"/>
        <rect id="Rectangle_120" data-name="Rectangle 120" width="30.534" height="13.29" transform="translate(1502.575 756.823)" fill="#f68c1f"/>
        <path id="Path_113" data-name="Path 113" d="M2375.6,946.8v13.29h-35.412V946.8Zm-283.383,0v13.29H2056.8V946.8Zm212.558,0v13.29h-35.412V946.8Zm-70.825,0v13.29h-35.412V946.8Zm-70.909,13.374h-35.412v-13.29h35.412Z" transform="translate(-492.485 -189.977)" fill="#f68c1f" fill-rule="evenodd"/>
        <g id="Group_11" data-name="Group 11" transform="translate(1906.074 299.911)">
          <path id="Path_114" data-name="Path 114" d="M2568.386,464.332c16.57,12.869,27.338,34.15,27.338,58.291,0,39.282-28.684,71.077-64.013,71.077s-64.011-31.88-64.011-71.077c0-24.141,10.851-45.422,27.337-58.291a45.606,45.606,0,0,1-1.767-12.786c0-23.552,17.159-42.646,38.44-42.646,21.2,0,38.441,19.094,38.441,42.646A49.867,49.867,0,0,1,2568.386,464.332Z" transform="translate(-2463.831 -404.442)" fill="#fcb64d" fill-rule="evenodd"/>
          <path id="Path_115" data-name="Path 115" d="M2572.029,461.723a75.6,75.6,0,0,1,19.178,25.234,82.176,82.176,0,0,1,7.655,34.824c0,41.637-30.365,75.367-67.881,75.367-37.431,0-67.88-33.73-67.88-75.367a82.172,82.172,0,0,1,7.654-34.824,73.447,73.447,0,0,1,19.178-25.234c-.252-1.346-.505-2.608-.757-4.037a50.24,50.24,0,0,1-.5-7.15,49.592,49.592,0,0,1,12.364-33.225,39.373,39.373,0,0,1,59.722,0,49.584,49.584,0,0,1,12.365,33.225,50.1,50.1,0,0,1-.5,7.15,29.11,29.11,0,0,1-.589,4.037Zm12.365,29.188a65.093,65.093,0,0,0-18.926-23.973l-2.271-1.766.842-2.944a40.609,40.609,0,0,0,1.177-5.72,45.189,45.189,0,0,0,.42-5.888,40.763,40.763,0,0,0-10.094-27.169,32.214,32.214,0,0,0-48.955,0,40.763,40.763,0,0,0-10.094,27.169,45.232,45.232,0,0,0,.42,5.888,43.271,43.271,0,0,0,1.178,5.72l.84,2.944-2.27,1.766a65.083,65.083,0,0,0-18.926,23.973,72.821,72.821,0,0,0-6.729,30.87c0,36.926,26.917,66.871,60.142,66.871s60.142-29.945,60.142-66.871A75.532,75.532,0,0,0,2584.394,490.911Z" transform="translate(-2463.101 -403.6)" fill="#da6327"/>
          <path id="Path_116" data-name="Path 116" d="M2555.253,494.494c14.72,8.159,24.814,25.066,24.814,44.581,0,27.506-20.019,49.8-44.834,49.8-24.729,0-44.832-22.291-44.832-49.8,0-19.514,10.093-36.421,24.813-44.581,1.43-10.767,9.842-19.094,19.935-19.094C2545.412,475.484,2553.823,483.727,2555.253,494.494Z" transform="translate(-2467.438 -415.006)" fill="#fccc97" fill-rule="evenodd"/>
          <path id="Path_117" data-name="Path 117" d="M2539,910.354V633.7h8.075V910.354Z" transform="translate(-2475.157 -440.152)" fill="#da6327" fill-rule="evenodd"/>
          <path id="Path_118" data-name="Path 118" d="M2535.49,628.722V594.4l-18.59-20.776,5.637-6.309,12.953,14.468V518.7h8.075v29.356l5.635-6.309,5.72,6.309-11.355,12.617v68.049Z" transform="translate(-2471.647 -421.884)" fill="#f47c20" fill-rule="evenodd"/>
        </g>
        <path id="Path_119" data-name="Path 119" d="M2568.452,13.8A43.734,43.734,0,0,1,2609,41.053a30.129,30.129,0,0,1,28.094,30.029V81.765h18.589a2.944,2.944,0,1,1,0,5.888H2612.7a2.944,2.944,0,0,1,0-5.888h18.59v-10.6a23.876,23.876,0,0,0-7.15-17.159,24.368,24.368,0,0,0-17.159-7.15h-2.019l-.673-1.935A38.4,38.4,0,0,0,2590.406,26.5a37.565,37.565,0,0,0-21.87-6.9,37.719,37.719,0,0,0-35.749,25.319l-.673,1.935H2530.1a23.873,23.873,0,0,0-17.159,7.15,24.293,24.293,0,0,0-6.981,14.3h39.87a2.944,2.944,0,0,1,0,5.888h-85.881a2.944,2.944,0,1,1,0-5.888h40.207a30.067,30.067,0,0,1,27.926-27.169,43.679,43.679,0,0,1,15.309-19.262,42.463,42.463,0,0,1,25.066-8.075Zm-65.693,66.114a2.944,2.944,0,1,0,0,5.888h85.881a2.944,2.944,0,1,0,0-5.888Z" transform="translate(-484.919 47.976)" fill="#ffd69f"/>
        <path id="Path_120" data-name="Path 120" d="M2927.174,170.7a30.206,30.206,0,0,1,17.581,5.636,30.586,30.586,0,0,1,10.683,13.458,21.049,21.049,0,0,1,19.6,21.029v7.486h12.954a2.019,2.019,0,1,1,0,4.038h-29.944a2.019,2.019,0,1,1,0-4.038H2971v-7.486a17.187,17.187,0,0,0-4.963-12.028,16.834,16.834,0,0,0-12.028-4.963h-1.43l-.5-1.346a26.632,26.632,0,0,0-40.291-12.785,26.215,26.215,0,0,0-9.674,12.785l-.505,1.346h-1.43a17.01,17.01,0,0,0-16.907,14.972h27.842a2.019,2.019,0,1,1,0,4.037h-59.89a2.019,2.019,0,0,1,0-4.037h28.011a21.239,21.239,0,0,1,6.056-12.87,20.9,20.9,0,0,1,13.458-6.14,30.669,30.669,0,0,1,28.431-19.094Z" transform="translate(-618.358 -66.692)" fill="#ffd69f"/>
        <path id="Path_121" data-name="Path 121" d="M201.471,183.1a37.367,37.367,0,0,1,34.649,23.347,25.748,25.748,0,0,1,23.942,25.727v9.146H275.9a2.454,2.454,0,0,1,0,4.907H239.243a2.454,2.454,0,1,1,0-4.907h15.838V232.1a20.817,20.817,0,0,0-20.819-20.819h-1.785l-.595-1.636a32.52,32.52,0,0,0-30.56-21.637,31.715,31.715,0,0,0-18.663,5.948,32.93,32.93,0,0,0-11.9,15.689l-.595,1.636h-1.785a20.827,20.827,0,0,0-20.671,18.291h34.054a2.454,2.454,0,1,1,0,4.907H108.454a2.454,2.454,0,1,1,0-4.907h34.277a25.847,25.847,0,0,1,23.868-23.2,37.567,37.567,0,0,1,13.086-16.507A38.934,38.934,0,0,1,201.471,183.1Z" transform="translate(-106 -88.418)" fill="#ffd69f"/>
        <path id="Path_122" data-name="Path 122" d="M1959.784,752.176a27.45,27.45,0,0,1,10.262,21.87c0,14.72-10.767,26.664-23.973,26.664s-23.972-11.944-23.972-26.664a27.7,27.7,0,0,1,10.262-21.87,17.845,17.845,0,0,1-.673-4.795c0-8.832,6.477-15.982,14.384-15.982s14.384,7.15,14.384,15.982A17.835,17.835,0,0,1,1959.784,752.176Z" transform="translate(-471.088 -155.76)" fill="#f8981d" fill-rule="evenodd"/>
        <path id="Path_123" data-name="Path 123" d="M1961.1,751.186a27.482,27.482,0,0,1,7.15,9.421,30.235,30.235,0,0,1,2.86,13.038c0,15.561-11.356,28.263-25.4,28.263s-25.4-12.617-25.4-28.263a30.235,30.235,0,0,1,2.86-13.038,28.563,28.563,0,0,1,7.15-9.421l-.253-1.514c-.084-.841-.168-1.766-.168-2.691a18.593,18.593,0,0,1,4.626-12.449,14.762,14.762,0,0,1,22.375,0,18.592,18.592,0,0,1,4.626,12.449c0,.925-.084,1.766-.168,2.691a4.785,4.785,0,0,1-.252,1.514Zm4.626,10.935a24.971,24.971,0,0,0-7.066-9l-.841-.673.337-1.094a18.793,18.793,0,0,0,.42-2.1,17.792,17.792,0,0,0,.168-2.187,15.174,15.174,0,0,0-3.785-10.178,12.1,12.1,0,0,0-18.337,0,15.171,15.171,0,0,0-3.785,10.178,17.692,17.692,0,0,0,.168,2.187,15.479,15.479,0,0,0,.42,2.1l.336,1.094-.841.673a24.275,24.275,0,0,0-7.065,9,27.515,27.515,0,0,0-2.524,11.524c0,13.795,10.094,25.066,22.543,25.066s22.543-11.187,22.543-25.066A27.614,27.614,0,0,0,1965.723,762.121Z" transform="translate(-470.802 -155.443)" fill="#da6327"/>
        <path id="Path_124" data-name="Path 124" d="M1954.81,763.45c5.551,3.028,9.337,9.421,9.337,16.739,0,10.262-7.486,18.673-16.823,18.673-9.253,0-16.823-8.327-16.823-18.673a19.025,19.025,0,0,1,9.337-16.739,7.856,7.856,0,0,1,7.486-7.15C1951.193,756.3,1954.305,759.412,1954.81,763.45Z" transform="translate(-472.422 -159.716)" fill="#fcb64d" fill-rule="evenodd"/>
        <path id="Path_125" data-name="Path 125" d="M1948.8,919.314V815.6h2.944V919.314Z" transform="translate(-475.329 -169.136)" fill="#da6327" fill-rule="evenodd"/>
        <path id="Path_126" data-name="Path 126" d="M1947.482,813.816V800.947l-6.982-7.823,2.1-2.355,4.879,5.468V772.6h2.944v10.935l2.187-2.355,2.1,2.355-4.289,4.711v25.571Z" transform="translate(-474.01 -162.305)" fill="#f47c20" fill-rule="evenodd"/>
        <path id="Path_127" data-name="Path 127" d="M1076.983,789.477a27.449,27.449,0,0,1,10.262,21.87c0,14.72-10.767,26.664-23.973,26.664s-23.973-11.945-23.973-26.664a27.7,27.7,0,0,1,10.262-21.87,17.843,17.843,0,0,1-.673-4.795c0-8.832,6.477-15.982,14.384-15.982s14.383,7.15,14.383,15.982A17.833,17.833,0,0,1,1076.983,789.477Z" transform="translate(-330.853 -161.686)" fill="#f8981d" fill-rule="evenodd"/>
        <path id="Path_128" data-name="Path 128" d="M1078.4,788.586a27.475,27.475,0,0,1,7.15,9.421,30.234,30.234,0,0,1,2.86,13.038c0,15.561-11.355,28.263-25.4,28.263s-25.4-12.617-25.4-28.263a30.5,30.5,0,0,1,2.86-13.038,28.558,28.558,0,0,1,7.15-9.421q-.126-.757-.252-1.514c-.085-.841-.168-1.766-.168-2.692a18.592,18.592,0,0,1,4.626-12.449,14.762,14.762,0,0,1,22.375,0,18.592,18.592,0,0,1,4.626,12.449c0,.925-.084,1.767-.168,2.692q-.127.757-.253,1.514Zm4.626,10.851a24.966,24.966,0,0,0-7.066-9l-.841-.673.336-1.094a18.639,18.639,0,0,0,.421-2.1,17.81,17.81,0,0,0,.168-2.187,15.172,15.172,0,0,0-3.785-10.178,12.1,12.1,0,0,0-18.337,0,15.173,15.173,0,0,0-3.785,10.178,17.76,17.76,0,0,0,.168,2.187,15.5,15.5,0,0,0,.421,2.1l.337,1.094-.841.673a24.267,24.267,0,0,0-7.066,9,27.515,27.515,0,0,0-2.523,11.524c0,13.795,10.094,25.066,22.543,25.066s22.543-11.187,22.543-25.066A30.491,30.491,0,0,0,1083.022,799.437Z" transform="translate(-330.583 -161.384)" fill="#da6327"/>
        <path id="Path_129" data-name="Path 129" d="M1072.109,800.85c5.552,3.028,9.337,9.421,9.337,16.739,0,10.262-7.486,18.674-16.823,18.674-9.252,0-16.823-8.327-16.823-18.674a19.027,19.027,0,0,1,9.337-16.739,7.856,7.856,0,0,1,7.486-7.15C1068.408,793.7,1071.521,796.812,1072.109,800.85Z" transform="translate(-332.203 -165.657)" fill="#fcb64d" fill-rule="evenodd"/>
        <rect id="Rectangle_121" data-name="Rectangle 121" width="3.028" height="72.255" transform="translate(730.906 677.923)" fill="#da6327"/>
        <path id="Path_130" data-name="Path 130" d="M1064.682,851.116v-12.87l-6.981-7.738,2.1-2.355,4.879,5.383V809.9h3.028v11.019l2.1-2.355,2.1,2.355-4.206,4.71v25.487Z" transform="translate(-333.776 -168.23)" fill="#f47c20" fill-rule="evenodd"/>
        <rect id="Rectangle_122" data-name="Rectangle 122" width="135.173" height="18.169" transform="translate(1035.57 635.193)" fill="#0095da"/>
        <rect id="Rectangle_123" data-name="Rectangle 123" width="414.602" height="18.169" transform="translate(777.337 635.193)" fill="#f8981d"/>
        <rect id="Rectangle_124" data-name="Rectangle 124" width="135.173" height="84.788" transform="translate(1035.57 550.405)" fill="#ffd69f"/>
        <path id="Path_131" data-name="Path 131" d="M1428.7,786.188h28.263l84.7-84.788H1513.4l-84.7,84.788Zm42.394,0,84.788-84.788h7.655v6.477l-78.311,78.311Z" transform="translate(-392.71 -150.995)" fill="#fff" fill-rule="evenodd"/>
        <rect id="Rectangle_125" data-name="Rectangle 125" width="135.173" height="6.056" transform="translate(1035.57 544.349)" fill="#fcb64d"/>
        <rect id="Rectangle_126" data-name="Rectangle 126" width="135.173" height="6.056" transform="translate(1035.57 538.293)" fill="#f78c1f"/>
        <path id="Path_132" data-name="Path 132" d="M715.872,346.3H709.9V748.705h9.169Z" transform="translate(-278.527 -94.586)" fill="#f8981d" fill-rule="evenodd"/>
        <path id="Path_133" data-name="Path 133" d="M2309.257,346.3H2303.2V748.705h9.252Z" transform="translate(-531.626 -94.586)" fill="#f8981d" fill-rule="evenodd"/>
        <g id="Group_12" data-name="Group 12" transform="translate(808.375 756.823)">
          <rect id="Rectangle_127" data-name="Rectangle 127" width="478.277" height="13.29" fill="#da6327"/>
          <rect id="Rectangle_128" data-name="Rectangle 128" width="30.534" height="13.29" transform="translate(51.983)" fill="#f68c1f"/>
          <path id="Path_134" data-name="Path 134" d="M1612.1,946.8v13.29h-35.412V946.8Zm-283.383,0v13.29H1293.3V946.8Zm212.558,0v13.29h-35.412V946.8Zm-70.909,0v13.29h-35.412V946.8Zm-70.825,13.374h-35.412v-13.29h35.412Z" transform="translate(-1179.577 -946.8)" fill="#f68c1f" fill-rule="evenodd"/>
        </g>
        <g id="Group_13" data-name="Group 13" transform="translate(1019.42 756.823)">
          <rect id="Rectangle_129" data-name="Rectangle 129" width="478.277" height="13.29" fill="#da6327"/>
          <rect id="Rectangle_130" data-name="Rectangle 130" width="30.534" height="13.29" transform="translate(51.983)" fill="#f68c1f"/>
          <path id="Path_135" data-name="Path 135" d="M1862.9,946.8v13.29h-35.412V946.8Zm-283.383,0v13.29H1544.1V946.8Zm212.558,0v13.29h-35.412V946.8Zm-70.824,0v13.29h-35.412V946.8Zm-70.909,13.374h-35.412v-13.29h35.412Z" transform="translate(-1430.461 -946.8)" fill="#f68c1f" fill-rule="evenodd"/>
        </g>
        <g id="Group_14" data-name="Group 14" transform="translate(216.123 428.102)">
          <path id="Path_136" data-name="Path 136" d="M530.143,599.823c11.944,9.337,19.851,24.73,19.851,42.225,0,28.431-20.776,51.478-46.347,51.478S457.3,670.479,457.3,642.048c0-17.5,7.823-32.889,19.851-42.225a33.667,33.667,0,0,1-1.262-9.253c0-17.075,12.449-30.87,27.842-30.87s27.842,13.879,27.842,30.87A41.658,41.658,0,0,1,530.143,599.823Z" transform="translate(-454.524 -556.588)" fill="#fcb64d" fill-rule="evenodd"/>
          <path id="Path_137" data-name="Path 137" d="M532.816,597.973a54.536,54.536,0,0,1,13.879,18.253,59.618,59.618,0,0,1,5.552,25.234c0,30.113-22.038,54.591-49.123,54.591-27.169,0-49.123-24.477-49.123-54.591a59.621,59.621,0,0,1,5.552-25.234,54.537,54.537,0,0,1,13.879-18.253c-.168-.925-.421-1.935-.5-2.86a35.042,35.042,0,0,1-.336-5.131,35.792,35.792,0,0,1,9-24.057,28.5,28.5,0,0,1,43.235,0,35.792,35.792,0,0,1,9,24.057,34.284,34.284,0,0,1-.336,5.131c-.252.925-.421,1.935-.673,2.86Zm9,21.113a47.422,47.422,0,0,0-13.711-17.328l-1.682-1.262.589-2.1a32.457,32.457,0,0,0,.841-4.122,34.232,34.232,0,0,0,.252-4.206,29.4,29.4,0,0,0-7.318-19.683,23.2,23.2,0,0,0-35.328,0,29.4,29.4,0,0,0-7.318,19.683,34.256,34.256,0,0,0,.252,4.206,32.524,32.524,0,0,0,.841,4.122l.589,2.1-1.682,1.262a48.13,48.13,0,0,0-13.711,17.328,52.851,52.851,0,0,0-4.879,22.375c0,26.748,19.515,48.45,43.571,48.45s43.571-21.7,43.571-48.45A52.852,52.852,0,0,0,541.816,619.086Z" transform="translate(-454 -556)" fill="#da6327"/>
          <path id="Path_138" data-name="Path 138" d="M520.736,621.695c10.683,5.888,18,18.169,18,32.3,0,19.935-14.552,36.085-32.468,36.085S473.8,673.93,473.8,653.995c0-14.131,7.318-26.412,18-32.3,1.009-7.823,7.15-13.795,14.468-13.795S519.643,613.872,520.736,621.695Z" transform="translate(-457.145 -564.245)" fill="#fccc97" fill-rule="evenodd"/>
          <path id="Path_139" data-name="Path 139" d="M508.9,922.946V722.5h5.8V922.946Z" transform="translate(-462.721 -582.449)" fill="#da6327" fill-rule="evenodd"/>
          <path id="Path_140" data-name="Path 140" d="M506.358,718.857V694.043L492.9,678.987l4.038-4.542,9.421,10.514V639.2h5.8v21.281l4.122-4.542,4.122,4.542-8.243,9.084v49.291Z" transform="translate(-460.179 -569.217)" fill="#f47c20" fill-rule="evenodd"/>
        </g>
        <rect id="Rectangle_131" data-name="Rectangle 131" width="240.148" height="6.056" transform="translate(789.45 683.559)" fill="#f47c20"/>
        <path id="Path_141" data-name="Path 141" d="M1596.1,859.7v6.056h240.148V859.7Z" transform="translate(-419.302 -176.141)" fill="#f47c20" fill-rule="evenodd"/>
        <rect id="Rectangle_132" data-name="Rectangle 132" width="123.06" height="6.056" transform="translate(1041.626 683.559)" fill="#f47c20"/>
        <path id="Path_142" data-name="Path 142" d="M2165.957,634.562v96.059H2159.9V346.3h6.057V634.562Z" transform="translate(-508.862 -94.586)" fill="#fff" fill-rule="evenodd"/>
        <path id="Path_143" data-name="Path 143" d="M2242.072,634.562v96.059H2236.1V346.3h5.972V634.562Z" transform="translate(-520.967 -94.586)" fill="#fff" fill-rule="evenodd"/>
        <path id="Path_144" data-name="Path 144" d="M2089.772,634.562v96.059H2083.8V346.3h5.972V634.562Z" transform="translate(-496.773 -94.586)" fill="#fff" fill-rule="evenodd"/>
        <circle id="Ellipse_1" data-name="Ellipse 1" cx="20.272" cy="20.272" r="20.272" transform="translate(629.123 122.285)" fill="none" stroke="#fef5e3" stroke-miterlimit="10" stroke-width="5"/>
        <circle id="Ellipse_9" data-name="Ellipse 9" cx="18.681" cy="18.681" r="18.681" transform="translate(1447.906 17.724)" fill="none" stroke="#fef5e3" stroke-miterlimit="10" stroke-width="5"/>
        <circle id="Ellipse_2" data-name="Ellipse 2" cx="19.63" cy="19.63" r="19.63" transform="translate(95.992 27.54)" fill="none" stroke="#fef5e3" stroke-miterlimit="10" stroke-width="5"/>
        <circle id="Ellipse_3" data-name="Ellipse 3" cx="21.702" cy="21.702" r="21.702" transform="translate(31.996 370.82)" fill="none" stroke="#fef5e3" stroke-miterlimit="10" stroke-width="5"/>
        <circle id="Ellipse_4" data-name="Ellipse 4" cx="14.468" cy="14.468" r="14.468" transform="translate(1762.7 93.265)" fill="none" stroke="#fef5e3" stroke-miterlimit="10" stroke-width="5"/>
        <circle id="Ellipse_5" data-name="Ellipse 5" cx="22.206" cy="22.206" r="22.206" transform="translate(2061.476 340.272)" fill="none" stroke="#fef5e3" stroke-miterlimit="10" stroke-width="5"/>
        <circle id="Ellipse_6" data-name="Ellipse 6" cx="14" cy="14" r="14" transform="translate(1895.017 190.316)" fill="#fff3e1"/>
        <circle id="Ellipse_7" data-name="Ellipse 7" cx="22.206" cy="22.206" r="22.206" transform="translate(431.323 10.558)" fill="#fff3e1"/>
        <circle id="Ellipse_10" data-name="Ellipse 10" cx="11.725" cy="11.725" r="11.725" transform="translate(1545.996 54.793)" fill="#fff3e1"/>
        <circle id="Ellipse_12" data-name="Ellipse 12" cx="6.297" cy="6.297" r="6.297" transform="translate(976.092 86.62)" fill="#fff3e1"/>
        <circle id="Ellipse_13" data-name="Ellipse 13" cx="6.297" cy="6.297" r="6.297" transform="translate(1019.578 152.38)" fill="#fff3e1"/>
        <circle id="Ellipse_11" data-name="Ellipse 11" cx="16.373" cy="16.373" r="16.373" transform="translate(1799.709 0)" fill="#fff3e1"/>
        <circle id="Ellipse_8" data-name="Ellipse 8" cx="14.558" cy="14.558" r="14.558" transform="translate(853.87 194.009)" fill="#fef5e3"/>
        <g id="Group_15" data-name="Group 15" transform="translate(1020.663 265.763)">
          <line id="Line_1" data-name="Line 1" x2="11.879" y2="13.859" transform="translate(0)" fill="none" stroke="#ffdfb4" stroke-linecap="round" stroke-miterlimit="10" stroke-width="4"/>
          <line id="Line_2" data-name="Line 2" x1="11.879" y2="13.859" transform="translate(0)" fill="none" stroke="#ffdfb4" stroke-linecap="round" stroke-miterlimit="10" stroke-width="4"/>
        </g>
        <g id="Group_16" data-name="Group 16" transform="translate(1915.136 114.852)">
          <line id="Line_3" data-name="Line 3" x2="7.402" y2="8.58" fill="none" stroke="#ffdfb4" stroke-linecap="round" stroke-miterlimit="10" stroke-width="4"/>
          <line id="Line_4" data-name="Line 4" x1="7.402" y2="8.58" fill="none" stroke="#ffdfb4" stroke-linecap="round" stroke-miterlimit="10" stroke-width="4"/>
        </g>
        <g id="Group_20" data-name="Group 20" transform="translate(1638.793 24.531)">
          <line id="Line_3-2" data-name="Line 3" x2="7.402" y2="8.58" fill="none" stroke="#ffdfb4" stroke-linecap="round" stroke-miterlimit="10" stroke-width="4"/>
          <line id="Line_4-2" data-name="Line 4" x1="7.402" y2="8.58" fill="none" stroke="#ffdfb4" stroke-linecap="round" stroke-miterlimit="10" stroke-width="4"/>
        </g>
        <g id="Group_21" data-name="Group 21" transform="translate(1318.793 99.678)">
          <line id="Line_3-3" data-name="Line 3" x2="8.737" y2="10.127" fill="none" stroke="#ffdfb4" stroke-linecap="round" stroke-miterlimit="10" stroke-width="4"/>
          <line id="Line_4-3" data-name="Line 4" x1="8.737" y2="10.127" fill="none" stroke="#ffdfb4" stroke-linecap="round" stroke-miterlimit="10" stroke-width="4"/>
        </g>
        <g id="Group_18" data-name="Group 18" transform="translate(713.41 181.898)">
          <line id="Line_7" data-name="Line 7" x2="5.804" y2="6.726" fill="none" stroke="#ffdfb4" stroke-linecap="round" stroke-miterlimit="10" stroke-width="4"/>
          <line id="Line_8" data-name="Line 8" x1="5.804" y2="6.726" fill="none" stroke="#ffdfb4" stroke-linecap="round" stroke-miterlimit="10" stroke-width="4"/>
        </g>
        <g id="Group_19" data-name="Group 19" transform="translate(300.911 21.66)">
          <line id="Line_9" data-name="Line 9" x2="9.421" y2="10.935" fill="none" stroke="#ffdfb4" stroke-linecap="round" stroke-miterlimit="10" stroke-width="4"/>
          <line id="Line_10" data-name="Line 10" x1="9.421" y2="10.935" fill="none" stroke="#ffdfb4" stroke-linecap="round" stroke-miterlimit="10" stroke-width="4"/>
        </g>
        <rect id="Rectangle_133" data-name="Rectangle 133" width="6.056" height="96.984" transform="translate(1164.686 538.209)" fill="#fff"/>
      </g>
    </g>
  </g>
</svg>
