<svg xmlns="http://www.w3.org/2000/svg" width="112.232" height="170.329" viewBox="0 0 112.232 170.329">
  <g id="Icon" transform="translate(0 0)">
    <path id="bg" d="M54.362,0A54.362,54.362,0,1,1,0,54.362,54.362,54.362,0,0,1,54.362,0Z" transform="translate(0 61.604)" fill="#fff3e2"/>
    <g id="Trusworthy" transform="translate(12.058 20.939)">
      <g id="Group_248" data-name="Group 248" transform="translate(9.639 0)">
        <path id="Path_1008" data-name="Path 1008" d="M507.313,343.922a16.111,16.111,0,0,1-4.882.673,23.391,23.391,0,0,1-5.989-.825c-6.965-1.866-8.483-5.185-9.764-7.03l-3.927-8.44-4.817,8.31c-1.215,2.083-3.385,4.708-10.5,7.16a16.785,16.785,0,0,1-5.4.89,15.821,15.821,0,0,1-4.882-.738l-7.55-2.972.239,12.931c.217,11.695.282,13.083.3,13.5,1.041,31.547,28.791,43.155,29.074,43.263l3.081,1.237,3.059-1.28c1.193-.5,29.009-12.541,29.16-43.676.044-.759.087-3.038.2-13.17l.043-4.752.109-8.223Z" transform="translate(-449.6 -328.3)" fill="#e8a200"/>
        <g id="Group_247" data-name="Group 247" transform="translate(2.018 4.274)">
          <g id="Group_246" data-name="Group 246">
            <path id="Path_1009" data-name="Path 1009" d="M515.312,361.17a17.124,17.124,0,0,1-5.576.824,25.114,25.114,0,0,1-6.487-.889c-7.941-2.126-10.111-6.726-11.022-8.05L489.84,348l-2.951,5.1c-1.714,2.387-3.45,5.207-11.521,7.985a18.354,18.354,0,0,1-6.053,1,18.044,18.044,0,0,1-5.576-.846l-4.838-1.909.174,9.981c.217,11.781.282,13.04.3,13.43,1,30.354,27.577,41.441,27.837,41.549l2.322.933,2.3-.976c1.128-.478,27.837-12.063,27.967-41.918.043-.694.087-2.842.2-13.126l.043-4.752.065-5.251Z" transform="translate(-458.9 -348)" fill="#fff"/>
            <path id="Path_1010" data-name="Path 1010" d="M515.257,391.561c-9.85-2.625-12.823-8.961-12.823-8.961s-3.189,5.489-13.018,8.874a21.837,21.837,0,0,1-14.016.087l.087,4.773c.2,11.3.282,12.91.3,13.322.89,28.206,25.407,38.4,25.667,38.49l1,.412,1-.412c1.063-.434,25.754-11.174,25.841-38.815.021-.521.087-2.473.2-13.061l.044-4.752C529.512,391.5,523.805,393.839,515.257,391.561Z" transform="translate(-471.82 -375.093)" fill="#fcb64d"/>
          </g>
          <path id="Path_1011" data-name="Path 1011" d="M612.823,391.561C602.973,388.935,600,382.6,600,382.6l.022,65.958,1-.412c1.063-.434,25.754-11.174,25.841-38.815.022-.521.087-2.473.2-13.061l.043-4.752C627.078,391.5,621.371,393.839,612.823,391.561Z" transform="translate(-569.386 -375.093)" fill="#ee7d09" opacity="0.44"/>
        </g>
      </g>
      <g id="Group_251" data-name="Group 251" transform="translate(45.482 41.844)">
        <path id="Path_1012" data-name="Path 1012" d="M707.465,581.9l-1.475,8.136-11.89-2.8,8.028-31.786,2.886-5.294.954-7.7c1.215-8.18-3.776-18.312,0-20.829a3.371,3.371,0,0,1,4.86,1.692l3.949,22.261c0,.043,1.389,11.131,1.15,16.316a22.519,22.519,0,0,1-2.69,9.482Z" transform="translate(-676.895 -521.16)" fill="#fccc97"/>
        <g id="Group_250" data-name="Group 250" transform="translate(0 0.768)">
          <path id="Path_1013" data-name="Path 1013" d="M670.532,628.808l-18.225-3.428c.369-2.474-.412-6.14-.542-8.288a35.607,35.607,0,0,1,.911-11.651,32.712,32.712,0,0,1,5.576-11.326l4.361-15.86c.521-3.84,1.823-6.162,3.428-6.617,2.755-.759,5.12.087,6.183,2.733l-3.276,19.875s2.712,6.27-.824,14.255l.629,11.608C669.468,623.384,670.054,626.248,670.532,628.808Z" transform="translate(-643.671 -561.244)" fill="#fccc97"/>
          <path id="Path_1014" data-name="Path 1014" d="M716.7,585.225a14.356,14.356,0,0,0,2.43.868,8.56,8.56,0,0,0,2.04.2l.781-3.341a3.316,3.316,0,0,0-2.126-1.259,3.652,3.652,0,0,0-2.343.217Z" transform="translate(-694.591 -569.256)" fill="#fff" opacity="0.4"/>
          <path id="Path_1015" data-name="Path 1015" d="M763.476,524.7a3.232,3.232,0,0,0-.976.716l.564,3.385a10.79,10.79,0,0,0,1.823-.044c-.152-.911-.326-1.823-.477-2.712A3.5,3.5,0,0,0,763.476,524.7Z" transform="translate(-730.454 -524.7)" fill="#fff" opacity="0.4"/>
          <g id="Group_249" data-name="Group 249" transform="translate(0 63.919)">
            <path id="Path_1016" data-name="Path 1016" d="M627.5,821.817a2.519,2.519,0,0,1,2.517-2.517h27.837a2.519,2.519,0,0,1,2.517,2.517v6.856a2.519,2.519,0,0,1-2.517,2.516H630.017a2.519,2.519,0,0,1-2.517-2.516Z" transform="translate(-624.744 -819.3)" fill="#f9d987"/>
            <path id="Path_1017" data-name="Path 1017" d="M614.8,857.927V869.7h38.816V857.927c0-1.83-1.128-3.327-2.517-3.327H617.317C615.928,854.6,614.8,856.1,614.8,857.927Z" transform="translate(-614.8 -846.941)" fill="#17c967"/>
            <path id="Path_1018" data-name="Path 1018" d="M637.243,831.752a1.286,1.286,0,0,1-1.345-1.215,1.3,1.3,0,0,1,1.237-1.345,1.271,1.271,0,0,1,1.345,1.215A1.3,1.3,0,0,1,637.243,831.752Z" transform="translate(-631.32 -827.044)" fill="#1b384c"/>
          </g>
        </g>
      </g>
      <g id="Group_254" data-name="Group 254" transform="translate(0 41.844)">
        <path id="Path_1019" data-name="Path 1019" d="M413.662,581.9l1.475,8.136,11.89-2.8L419,555.45l-2.886-5.294-.955-7.7c-1.215-8.18,3.775-18.312,0-20.829a3.371,3.371,0,0,0-4.86,1.692l-3.949,22.261c0,.043-1.389,11.131-1.15,16.316a22.517,22.517,0,0,0,2.69,9.482Z" transform="translate(-405.173 -521.16)" fill="#fccc97"/>
        <g id="Group_253" data-name="Group 253" transform="translate(0.223 0.768)">
          <path id="Path_1020" data-name="Path 1020" d="M455.292,628.808l18.225-3.428c-.369-2.474.412-6.14.543-8.288a35.618,35.618,0,0,0-.911-11.651,32.715,32.715,0,0,0-5.576-11.326l-4.361-15.86c-.521-3.84-1.823-6.162-3.428-6.617-2.755-.759-5.121.087-6.183,2.733l3.276,19.875s-2.712,6.27.824,14.255l-.629,11.608C456.356,623.384,455.77,626.248,455.292,628.808Z" transform="translate(-443.316 -561.244)" fill="#fccc97"/>
          <path id="Path_1021" data-name="Path 1021" d="M464.35,585.225a14.352,14.352,0,0,1-2.43.868,8.558,8.558,0,0,1-2.039.2l-.781-3.341a3.317,3.317,0,0,1,2.126-1.259,3.652,3.652,0,0,1,2.343.217Z" transform="translate(-447.622 -569.256)" fill="#fff" opacity="0.4"/>
          <path id="Path_1022" data-name="Path 1022" d="M427.91,524.7a3.235,3.235,0,0,1,.977.716l-.564,3.385a10.789,10.789,0,0,1-1.822-.044c.152-.911.325-1.823.477-2.712A3.5,3.5,0,0,1,427.91,524.7Z" transform="translate(-422.095 -524.7)" fill="#fff" opacity="0.4"/>
          <g id="Group_252" data-name="Group 252" transform="translate(0 63.919)">
            <path id="Path_1023" data-name="Path 1023" d="M453.87,821.817a2.518,2.518,0,0,0-2.517-2.517H423.517A2.519,2.519,0,0,0,421,821.817v6.856a2.519,2.519,0,0,0,2.517,2.516h27.837a2.518,2.518,0,0,0,2.517-2.516Z" transform="translate(-417.789 -819.3)" fill="#f9d987"/>
            <path id="Path_1024" data-name="Path 1024" d="M445.037,857.828v11.417H406.2V857.828c0-1.775,1.128-3.228,2.517-3.228h33.8C443.909,854.6,445.037,856.053,445.037,857.828Z" transform="translate(-406.2 -846.941)" fill="#17c967"/>
            <path id="Path_1025" data-name="Path 1025" d="M553.435,831.752a1.286,1.286,0,0,0,1.345-1.215,1.3,1.3,0,0,0-1.237-1.345,1.271,1.271,0,0,0-1.345,1.215A1.3,1.3,0,0,0,553.435,831.752Z" transform="translate(-520.521 -827.044)" fill="#1b384c"/>
          </g>
        </g>
      </g>
      <path id="Path_1026" data-name="Path 1026" d="M569.869,428.5l-24.908,24.886-10.848-10.848-4.513,4.513,15.361,15.361,29.421-29.4Z" transform="translate(-502.603 -406.76)" fill="#f8981d"/>
      <g id="Group_255" data-name="Group 255" transform="translate(28.646 23.389)">
        <path id="Path_1027" data-name="Path 1027" d="M550.912,466.714,537.2,453l2.864-2.864,10.848,10.87L575.82,436.1l2.842,2.864Z" transform="translate(-537.2 -436.1)" fill="#ef773a"/>
      </g>
    </g>
    <g id="asset" transform="translate(0 0)">
      <g id="Group_400" data-name="Group 400" transform="translate(0)">
        <path id="Path_1845" data-name="Path 1845" d="M-12.49-145.956a1.871,1.871,0,0,1-1.012-2.262.507.507,0,0,0,.03-.208h0a.93.93,0,0,0-.863-.982.859.859,0,0,0-.8.387h0c-.03.059-.089.119-.089.179A1.887,1.887,0,0,1-17.49-147.8a.506.506,0,0,0-.208-.03h0a.913.913,0,0,0-1.012.833.915.915,0,0,0,.357.833h0c.06.03.119.089.179.089a1.887,1.887,0,0,1,1.042,2.262.506.506,0,0,0-.03.208h0a.93.93,0,0,0,.863.982.859.859,0,0,0,.8-.387h0c.03-.06.089-.119.089-.179a1.887,1.887,0,0,1,2.262-1.042.506.506,0,0,0,.208.03h0a.93.93,0,0,0,.982-.863.859.859,0,0,0-.387-.8h0A.65.65,0,0,0-12.49-145.956Z" transform="translate(52.998 170.604)" fill="#4d8af0" opacity="0.5"/>
        <ellipse id="Ellipse_36" data-name="Ellipse 36" cx="3.036" cy="3.036" rx="3.036" ry="3.036" transform="translate(31.156 3.457)" fill="#ffd636" opacity="0.5"/>
        <ellipse id="Ellipse_37" data-name="Ellipse 37" cx="3.036" cy="3.036" rx="3.036" ry="3.036" transform="translate(92.628 21.699)" fill="#f55f44" opacity="0.5"/>
        <g id="Group_399" data-name="Group 399" transform="translate(3.695 47.715)" opacity="0.5">
          <rect id="Rectangle_343" data-name="Rectangle 343" width="1.518" height="8.632" transform="translate(3.542 0)" fill="#47e6b1"/>
          <rect id="Rectangle_344" data-name="Rectangle 344" width="8.632" height="1.518" transform="translate(0 3.542)" fill="#47e6b1"/>
        </g>
        <path id="Path_1850" data-name="Path 1850" d="M1072.726-19.214l3,2.724,4.249-6.21,1.5,1.253-5.747,7.463-4.221-4.739Z" transform="translate(-1065.149 44.183)" fill="#ca90f5" opacity="0.5"/>
        <path id="Path_1851" data-name="Path 1851" d="M1072.726-19.214l3,2.724,4.249-6.21,1.5,1.253-5.747,7.463-4.221-4.739Z" transform="translate(-971.272 84.367)" fill="#ca90f5" opacity="0.5"/>
        <g id="Group_396" data-name="Group 396" transform="translate(71.537 14.852)" opacity="0.5">
          <rect id="Rectangle_337" data-name="Rectangle 337" width="1.156" height="6.571" transform="translate(2.696)" fill="#47e6b1"/>
          <rect id="Rectangle_338" data-name="Rectangle 338" width="6.571" height="1.156" transform="translate(0 2.696)" fill="#47e6b1"/>
        </g>
        <g id="Group_401" data-name="Group 401" transform="translate(0 70.653)">
          <g id="Group_223" data-name="Group 223" transform="translate(2.793 0)">
            <g id="Group_222" data-name="Group 222">
              <g id="Group_221" data-name="Group 221">
                <rect id="Rectangle_254" data-name="Rectangle 254" width="1.384" height="1.308" fill="#ff4fac"/>
              </g>
            </g>
          </g>
          <g id="Group_226" data-name="Group 226" transform="translate(0 2.642)">
            <g id="Group_225" data-name="Group 225">
              <g id="Group_224" data-name="Group 224">
                <rect id="Rectangle_255" data-name="Rectangle 255" width="1.384" height="1.308" transform="translate(2.793)" fill="#ff4fac"/>
                <rect id="Rectangle_256" data-name="Rectangle 256" width="1.384" height="1.308" fill="#ff4fac"/>
                <rect id="Rectangle_257" data-name="Rectangle 257" width="1.384" height="1.308" transform="translate(5.586)" fill="#ff4fac"/>
              </g>
            </g>
          </g>
          <g id="Group_229" data-name="Group 229" transform="translate(2.793 5.259)">
            <g id="Group_228" data-name="Group 228">
              <g id="Group_227" data-name="Group 227">
                <rect id="Rectangle_258" data-name="Rectangle 258" width="1.384" height="1.308" fill="#ff4fac"/>
              </g>
            </g>
          </g>
        </g>
        <g id="Group_403" data-name="Group 403" transform="translate(55.735)">
          <g id="Group_223-2" data-name="Group 223" transform="translate(2.793)">
            <g id="Group_222-2" data-name="Group 222">
              <g id="Group_221-2" data-name="Group 221">
                <rect id="Rectangle_254-2" data-name="Rectangle 254" width="1.384" height="1.308" fill="#ff4fac"/>
              </g>
            </g>
          </g>
          <g id="Group_226-2" data-name="Group 226" transform="translate(0 2.642)">
            <g id="Group_225-2" data-name="Group 225">
              <g id="Group_224-2" data-name="Group 224">
                <rect id="Rectangle_255-2" data-name="Rectangle 255" width="1.384" height="1.308" transform="translate(2.793)" fill="#ff4fac"/>
                <rect id="Rectangle_256-2" data-name="Rectangle 256" width="1.384" height="1.308" fill="#ff4fac"/>
                <rect id="Rectangle_257-2" data-name="Rectangle 257" width="1.384" height="1.308" transform="translate(5.586)" fill="#ff4fac"/>
              </g>
            </g>
          </g>
          <g id="Group_229-2" data-name="Group 229" transform="translate(2.793 5.259)">
            <g id="Group_228-2" data-name="Group 228">
              <g id="Group_227-2" data-name="Group 227">
                <rect id="Rectangle_258-2" data-name="Rectangle 258" width="1.384" height="1.308" fill="#ff4fac"/>
              </g>
            </g>
          </g>
        </g>
        <g id="Group_402" data-name="Group 402" transform="translate(105.263 41.291)">
          <g id="Group_223-3" data-name="Group 223" transform="translate(2.793 0)">
            <g id="Group_222-3" data-name="Group 222">
              <g id="Group_221-3" data-name="Group 221">
                <rect id="Rectangle_254-3" data-name="Rectangle 254" width="1.384" height="1.308" fill="#fdd762"/>
              </g>
            </g>
          </g>
          <g id="Group_226-3" data-name="Group 226" transform="translate(0 2.642)">
            <g id="Group_225-3" data-name="Group 225">
              <g id="Group_224-3" data-name="Group 224">
                <rect id="Rectangle_255-3" data-name="Rectangle 255" width="1.384" height="1.308" transform="translate(2.793)" fill="#fdd762"/>
                <rect id="Rectangle_256-3" data-name="Rectangle 256" width="1.384" height="1.308" fill="#fdd762"/>
                <rect id="Rectangle_257-3" data-name="Rectangle 257" width="1.384" height="1.308" transform="translate(5.586)" fill="#fdd762"/>
              </g>
            </g>
          </g>
          <g id="Group_229-3" data-name="Group 229" transform="translate(2.793 5.259)">
            <g id="Group_228-3" data-name="Group 228">
              <g id="Group_227-3" data-name="Group 227">
                <rect id="Rectangle_258-3" data-name="Rectangle 258" width="1.384" height="1.308" fill="#fdd762"/>
              </g>
            </g>
          </g>
        </g>
      </g>
    </g>
  </g>
</svg>
