<svg xmlns="http://www.w3.org/2000/svg" width="126.314" height="173" viewBox="0 0 126.314 173">
  <g id="Icon" transform="translate(0)">
    <path id="bg" d="M55.327,0A55.327,55.327,0,1,1,0,55.327,55.327,55.327,0,0,1,55.327,0Z" transform="translate(3.393 62.346)" fill="#fff3e2"/>
    <g id="Award_Winning" data-name="Award Winning" transform="translate(0 0)">
      <g id="Group_189" data-name="Group 189" transform="translate(0 52.768)">
        <g id="Group_167" data-name="Group 167" transform="translate(35.012 78.446)">
          <g id="Group_165" data-name="Group 165">
            <path id="Path_913" data-name="Path 913" d="M165.936,151.009h-6.242c-.416-.312-.936-.624-1.457-.936-10.2-5.93-26.842-5.93-37.142,0-.624.416-1.248.728-1.769,1.144H113.5v9.572h0c0,3.849,2.6,7.8,7.7,10.716,10.2,5.93,26.842,5.93,37.142,0,5.1-2.913,7.7-6.867,7.7-10.716h0v-9.78Z" transform="translate(-113.475 -135.819)" fill="#00b757"/>
            <path id="Path_914" data-name="Path 914" d="M138.882,145.7c-6.45.1-12.8,1.561-17.687,4.474-.624.416-1.248.728-1.769,1.144H113.6v9.572c0,3.849,2.6,7.8,7.7,10.716,4.89,2.809,11.236,4.266,17.687,4.474V145.7Z" transform="translate(-113.471 -135.816)" fill="#17c967"/>
            <path id="Path_915" data-name="Path 915" d="M117.141,151.1H113.5v9.572c0,2.705,1.248,5.306,3.641,7.7Z" transform="translate(-113.475 -135.598)" fill="#17c967"/>
            <ellipse id="Ellipse_22" data-name="Ellipse 22" cx="26.218" cy="15.19" rx="26.218" ry="15.19" transform="translate(0.025)" fill="#05ab54"/>
            <path id="Path_916" data-name="Path 916" d="M158.342,161.492c-10.2,5.93-26.842,5.93-37.142,0-4.89-2.809-7.387-6.45-7.7-10.092-.312,4.058,2.289,8.219,7.7,11.34,10.2,5.93,26.842,5.93,37.142,0,5.41-3.121,7.907-7.179,7.7-11.34C165.729,155.041,163.128,158.683,158.342,161.492Z" transform="translate(-113.476 -135.586)" fill="#05ab54"/>
          </g>
          <g id="Group_166" data-name="Group 166" transform="translate(7.1)">
            <path id="Path_917" data-name="Path 917" d="M158.482,146.948H153.9a9.155,9.155,0,0,0-1.04-.624c-7.387-4.266-19.455-4.266-26.946,0-.416.312-.936.52-1.353.832H120.3v3.225h0c0,2.809,1.873,5.618,5.618,7.8,7.387,4.266,19.455,4.266,26.946,0,3.745-2.185,5.618-4.994,5.618-7.8h0Z" transform="translate(-120.3 -135.92)" fill="#00b757"/>
            <path id="Path_918" data-name="Path 918" d="M138.815,143.1a26.81,26.81,0,0,0-12.8,3.225c-.416.312-.936.52-1.352.832H120.4v3.225c0,2.809,1.873,5.618,5.618,7.8a26.81,26.81,0,0,0,12.8,3.225Z" transform="translate(-120.296 -135.921)" fill="#17c967"/>
            <path id="Path_919" data-name="Path 919" d="M123,147h-2.6v3.225a7.453,7.453,0,0,0,2.6,5.514Z" transform="translate(-120.296 -135.764)" fill="#0cd164"/>
            <ellipse id="Ellipse_23" data-name="Ellipse 23" cx="19.039" cy="11.028" rx="19.039" ry="11.028" transform="translate(0.104)" fill="#8a2ae3"/>
          </g>
        </g>
        <g id="Group_188" data-name="Group 188" transform="translate(0 0)">
          <g id="Group_170" data-name="Group 170" transform="translate(0 21.432)">
            <g id="Group_168" data-name="Group 168">
              <path id="Path_920" data-name="Path 920" d="M106.329,116.253a18.377,18.377,0,0,1-15.606-8.739L80.735,90.972a6.3,6.3,0,0,1-.1-6.346A6.384,6.384,0,0,1,86.145,81.4h19.663v5.1H86.145a1.143,1.143,0,0,0-1.04.624,1.09,1.09,0,0,0,0,1.144l9.988,16.542a13.31,13.31,0,0,0,11.34,6.346l17.166-.208.1,5.1-17.167.208Z" transform="translate(-79.823 -81.4)" fill="#fcb64d"/>
            </g>
            <g id="Group_169" data-name="Group 169" transform="translate(78.63)">
              <path id="Path_921" data-name="Path 921" d="M172.879,116.253h-.312l-17.166-.208.1-5.1,17.167.208a13.081,13.081,0,0,0,11.34-6.346L194,88.267a1.089,1.089,0,0,0,0-1.144,1.142,1.142,0,0,0-1.04-.624H173.295V81.4h19.663a6.383,6.383,0,0,1,5.514,3.225,6.061,6.061,0,0,1-.1,6.346l-9.988,16.542A18.2,18.2,0,0,1,172.879,116.253Z" transform="translate(-155.4 -81.4)" fill="#fcb64d"/>
            </g>
            <path id="Path_922" data-name="Path 922" d="M188.8,96.4l-4.786,7.907a13.081,13.081,0,0,1-11.34,6.346l-17.167-.208-.1,5.1,17.166.208h.312a18.231,18.231,0,0,0,14.565-7.283C189.629,102.642,189.213,98.481,188.8,96.4Z" transform="translate(-76.771 -80.794)" fill="#f39e1d"/>
          </g>
          <g id="Group_186" data-name="Group 186" transform="translate(23.489)">
            <g id="Group_185" data-name="Group 185">
              <g id="Group_172" data-name="Group 172" transform="translate(23.305 66.273)">
                <g id="Group_171" data-name="Group 171">
                  <ellipse id="Ellipse_24" data-name="Ellipse 24" cx="14.461" cy="8.323" rx="14.461" ry="8.323" fill="#fff"/>
                </g>
              </g>
              <g id="Group_174" data-name="Group 174" transform="translate(18.762 78.446)">
                <g id="Group_173" data-name="Group 173">
                  <path id="Path_923" data-name="Path 923" d="M122.583,140.674c3.017-2.289,2.5-4.474,2.5-4.474l2.289,2.809c6.971-3.329,17.166-3.329,24.137,0L153.8,136.2s-.624,2.185,2.5,4.474c3.017,2.289,2.081,6.659,2.081,6.659h0c0,2.809-1.873,5.618-5.514,7.7-7.387,4.266-19.351,4.266-26.738,0-3.641-2.081-5.514-4.89-5.514-7.7C120.607,147.332,119.566,142.963,122.583,140.674Z" transform="translate(-120.433 -136.2)" fill="#fcb64d"/>
                </g>
              </g>
              <g id="Group_176" data-name="Group 176" transform="translate(42.968 78.446)">
                <g id="Group_175" data-name="Group 175">
                  <path id="Path_924" data-name="Path 924" d="M149.11,141.4s-5.41-3.225-5.41-3.954a.951.951,0,0,1,.312-.52,26.237,26.237,0,0,1,6.659,2.081l2.289-2.809s-.624,2.185,2.5,4.474c3.017,2.289,2.081,6.659,2.081,6.659h0a7.043,7.043,0,0,1-1.665,4.474c0-.312.624-4.89-2.809-6.45C149.422,143.9,149.11,141.4,149.11,141.4Z" transform="translate(-143.7 -136.2)" fill="#f39e1d"/>
                </g>
              </g>
              <g id="Group_178" data-name="Group 178" transform="translate(23.357 69.68)">
                <g id="Group_177" data-name="Group 177">
                  <path id="Path_925" data-name="Path 925" d="M129.064,141.95c5.618,3.225,14.774,3.225,20.392,0s5.618-8.531,0-11.756-14.774-3.225-20.392,0S123.445,138.621,129.064,141.95Z" transform="translate(-124.85 -127.775)" fill="#f39e1d"/>
                </g>
              </g>
              <g id="Group_180" data-name="Group 180" transform="translate(0 21.744)">
                <g id="Group_179" data-name="Group 179">
                  <path id="Path_926" data-name="Path 926" d="M177.933,81.7c-.416,21.016-11.236,23.513-17.062,31.42-5.41,7.387-4.786,18-4.682,19.351v.1h0c0,2.393-1.561,4.786-4.682,6.554-6.242,3.641-16.438,3.641-22.681,0-2.913-1.665-4.474-3.849-4.682-6.138h0v-.416h0v-.1c.1-1.353.728-11.965-4.682-19.351-5.826-7.907-16.646-10.4-17.062-31.42h75.533Z" transform="translate(-102.4 -81.7)" fill="#fcb64d"/>
                </g>
              </g>
              <path id="Path_927" data-name="Path 927" d="M148.709,104.589s-.832,2.5-3.641,9.676c-2.705,7.179-1.457,25.386-1.457,25.386l4.682.312a11.364,11.364,0,0,0,1.561-.832c3.121-1.769,4.682-4.162,4.682-6.555h0v-.1c-.1-1.353-.728-11.965,4.682-19.351,5.826-7.907,16.646-10.4,17.062-31.42h-4.162Z" transform="translate(-100.747 -59.956)" fill="#f39e1d"/>
              <g id="Group_182" data-name="Group 182" transform="translate(0.104)">
                <g id="Group_181" data-name="Group 181">
                  <ellipse id="Ellipse_25" data-name="Ellipse 25" cx="37.662" cy="21.744" rx="37.662" ry="21.744" fill="#fcb64d"/>
                </g>
              </g>
              <path id="Path_928" data-name="Path 928" d="M113.529,97.061c14.774,8.531,38.6,8.531,53.372,0C173.872,93,177.514,87.906,177.93,82.6c.416,5.93-3.225,11.86-11.028,16.334-14.774,8.531-38.6,8.531-53.372,0-7.8-4.474-11.444-10.508-11.028-16.334C102.917,87.906,106.559,93.108,113.529,97.061Z" transform="translate(-102.397 -59.919)" fill="#fff"/>
              <g id="Group_184" data-name="Group 184" transform="translate(6.138 3.433)">
                <g id="Group_183" data-name="Group 183">
                  <ellipse id="Ellipse_26" data-name="Ellipse 26" cx="31.628" cy="18.311" rx="31.628" ry="18.311" fill="#fcb64d"/>
                </g>
              </g>
              <path id="Path_929" data-name="Path 929" d="M117.561,95.267c5.2,3.017,11.756,4.682,18.415,5.2a4.345,4.345,0,0,0,.936-4.266c-3.329-9.884-1.977-30.275-1.977-30.275L129,65.2a42.635,42.635,0,0,0-11.444,4.162C105.18,76.644,105.18,88.193,117.561,95.267Z" transform="translate(-102.163 -60.622)" fill="#f39e1d"/>
              <path id="Path_930" data-name="Path 930" d="M162.3,71.174c-12.381-7.179-32.356-7.179-44.737,0-5.826,3.329-8.947,7.7-9.26,12.069-.416-4.994,2.705-9.988,9.26-13.733,12.381-7.179,32.356-7.179,44.737,0,6.554,3.745,9.572,8.739,9.259,13.733C171.245,78.873,168.124,74.5,162.3,71.174Z" transform="translate(-102.163 -60.666)" fill="#fff"/>
              <path id="Path_931" data-name="Path 931" d="M154.8,97.158a52.5,52.5,0,0,1-31,0,9.147,9.147,0,0,1,1.04-.624c8.011-4.578,20.912-4.578,28.923,0A9.152,9.152,0,0,1,154.8,97.158Z" transform="translate(-101.536 -59.495)" fill="#e8a200"/>
            </g>
          </g>
          <g id="Group_187" data-name="Group 187" transform="translate(45.233 71.683)">
            <path id="Path_932" data-name="Path 932" d="M123.3,130.532V129.7c.208,2.185,1.769,4.266,4.682,5.93,6.242,3.641,16.438,3.641,22.681,0,2.809-1.665,4.37-3.641,4.682-5.826v.832h0c0,2.393-1.561,4.786-4.682,6.554-6.242,3.641-16.438,3.641-22.681,0-2.913-1.665-4.474-3.849-4.682-6.138h0v-.416h0Z" transform="translate(-123.3 -129.7)" fill="#fff"/>
          </g>
        </g>
      </g>
      <g id="asset" transform="translate(1.161 0)">
        <path id="Path_933" data-name="Path 933" d="M132.265,39.732a.832.832,0,1,1-.832-.832A.821.821,0,0,1,132.265,39.732Z" transform="translate(-87.43 -15.868)" fill="#fff"/>
        <g id="Group_190" data-name="Group 190" transform="translate(13.9 37.722)">
          <rect id="Rectangle_224" data-name="Rectangle 224" width="1.353" height="4.058" transform="matrix(-0.574, -0.819, 0.819, -0.574, 0.777, 11.052)" fill="#fdd762"/>
          <rect id="Rectangle_225" data-name="Rectangle 225" width="1.353" height="4.058" transform="matrix(-0.574, -0.819, 0.819, -0.574, 2.024, 8.52)" fill="#fdd762"/>
          <rect id="Rectangle_226" data-name="Rectangle 226" width="1.353" height="4.058" transform="matrix(-0.574, -0.819, 0.819, -0.574, 3.185, 6.049)" fill="#fdd762"/>
          <rect id="Rectangle_227" data-name="Rectangle 227" width="1.353" height="4.058" transform="translate(4.378 3.437) rotate(-125.052)" fill="#fdd762"/>
        </g>
        <g id="Group_191" data-name="Group 191" transform="translate(80.292 21.191)">
          <rect id="Rectangle_228" data-name="Rectangle 228" width="1.04" height="3.121" transform="matrix(-0.91, 0.414, -0.414, -0.91, 7.569, 6.704)" fill="#ff2c9c"/>
          <rect id="Rectangle_229" data-name="Rectangle 229" width="1.04" height="3.121" transform="matrix(-0.91, 0.414, -0.414, -0.91, 5.791, 5.419)" fill="#ff2c9c"/>
          <rect id="Rectangle_230" data-name="Rectangle 230" width="1.04" height="3.121" transform="matrix(-0.91, 0.414, -0.414, -0.91, 4.012, 4.134)" fill="#ff2c9c"/>
          <rect id="Rectangle_231" data-name="Rectangle 231" width="1.04" height="3.121" transform="translate(2.239 2.841) rotate(155.537)" fill="#ff2c9c"/>
        </g>
        <rect id="Rectangle_232" data-name="Rectangle 232" width="1.769" height="1.977" transform="matrix(0.568, 0.823, -0.823, 0.568, 37.916, 0)" fill="#ff2c9c"/>
        <rect id="Rectangle_233" data-name="Rectangle 233" width="1.769" height="1.977" transform="matrix(0.568, 0.823, -0.823, 0.568, 17.409, 16.084)" fill="#b45ef4"/>
        <g id="Group_192" data-name="Group 192" transform="translate(31.726 41.069)">
          <path id="Path_934" data-name="Path 934" d="M119.6,55.576l.624-1.04a1.291,1.291,0,0,0,1.04.1,1.96,1.96,0,0,0,1.144-1.248,3.856,3.856,0,0,1,4.162-2.289l-.312,1.248.1-.624-.1.624a2.523,2.523,0,0,0-2.705,1.561,3.147,3.147,0,0,1-1.977,1.873A2.95,2.95,0,0,1,119.6,55.576Z" transform="translate(-119.6 -51.04)" fill="#b45ef4"/>
        </g>
        <path id="Path_935" data-name="Path 935" d="M123.458,36.815a4.063,4.063,0,0,1-4.058-4.058,4,4,0,0,1,4.058-4.058,4.058,4.058,0,0,1,0,8.115Zm0-6.763a2.809,2.809,0,1,0,2.809,2.809A2.8,2.8,0,0,0,123.458,30.053Z" transform="translate(-87.882 -10.873)" fill="#fdd762"/>
        <g id="Group_193" data-name="Group 193" transform="translate(55.003 3.414)">
          <rect id="Rectangle_234" data-name="Rectangle 234" width="1.353" height="4.058" transform="matrix(0.574, -0.819, 0.819, 0.574, 3.535, 8.73)" fill="#fdd762"/>
          <rect id="Rectangle_235" data-name="Rectangle 235" width="1.353" height="4.058" transform="matrix(0.574, -0.819, 0.819, 0.574, 2.408, 6.179)" fill="#fdd762"/>
          <rect id="Rectangle_236" data-name="Rectangle 236" width="1.353" height="4.058" transform="matrix(0.574, -0.819, 0.819, 0.574, 1.282, 3.63)" fill="#fdd762"/>
          <rect id="Rectangle_237" data-name="Rectangle 237" width="1.353" height="4.058" transform="translate(0 1.107) rotate(-54.948)" fill="#fdd762"/>
        </g>
        <g id="Group_194" data-name="Group 194" transform="translate(98.369 33.106)">
          <rect id="Rectangle_238" data-name="Rectangle 238" width="1.353" height="4.058" transform="translate(1.189 5.72) rotate(17.038)" fill="#fdd762"/>
          <rect id="Rectangle_239" data-name="Rectangle 239" width="1.353" height="4.058" transform="translate(3.287 3.754) rotate(17.038)" fill="#fdd762"/>
          <rect id="Rectangle_240" data-name="Rectangle 240" width="1.353" height="4.058" transform="translate(5.254 1.859) rotate(17.038)" fill="#fdd762"/>
          <rect id="Rectangle_241" data-name="Rectangle 241" width="1.353" height="4.058" transform="translate(7.317 0) rotate(17.038)" fill="#fdd762"/>
        </g>
        <rect id="Rectangle_242" data-name="Rectangle 242" width="1.353" height="1.561" transform="matrix(-0.568, 0.823, -0.823, -0.568, 89.96, 36.585)" fill="#ff2c9c"/>
        <rect id="Rectangle_243" data-name="Rectangle 243" width="1.769" height="1.977" transform="matrix(-0.568, 0.823, -0.823, -0.568, 96.901, 7.734)" fill="#b45ef4"/>
        <g id="Group_195" data-name="Group 195" transform="translate(107.05 56.366)">
          <path id="Path_936" data-name="Path 936" d="M198.971,75.476l-.624-1.04a1.291,1.291,0,0,1-1.04.1,1.96,1.96,0,0,1-1.144-1.248A3.856,3.856,0,0,0,192,71l.312,1.248-.1-.624.1.624a2.523,2.523,0,0,1,2.7,1.561,3.147,3.147,0,0,0,1.977,1.873A2.126,2.126,0,0,0,198.971,75.476Z" transform="translate(-192 -70.94)" fill="#b45ef4"/>
        </g>
        <path id="Path_937" data-name="Path 937" d="M201.6,92.858a4.063,4.063,0,0,1,4.057-4.058,4,4,0,0,1,4.058,4.058,4.058,4.058,0,1,1-8.115,0Zm1.248,0a2.809,2.809,0,1,0,2.809-2.809A2.8,2.8,0,0,0,202.849,92.858Z" transform="translate(-84.562 -13.853)" fill="#fdd762"/>
        <path id="Path_938" data-name="Path 938" d="M149.105,53.123,146.4,47.505l5.618-2.705,2.705,5.618Zm-1.144-4.994,1.665,3.329,3.329-1.665-1.665-3.329Z" transform="translate(-86.792 -10.223)" fill="#ff2c9c"/>
        <path id="Path_939" data-name="Path 939" d="M91.073,40.722,89.2,36.873,93.049,35l1.873,3.849Zm-.728-3.433,1.144,2.289,2.289-1.144-1.144-2.289Z" transform="translate(-81.378 -11.391)" fill="#ff2c9c"/>
        <g id="Group_196" data-name="Group 196" transform="translate(0 51.286)">
          <path id="Path_940" data-name="Path 940" d="M81.662,75.123a4.162,4.162,0,1,1,4.162-4.162A4.174,4.174,0,0,1,81.662,75.123Zm0-7.491a3.329,3.329,0,1,0,3.329,3.329A3.422,3.422,0,0,0,81.662,67.632Z" transform="translate(-74.899 -66.8)" fill="#ff2c9c"/>
          <ellipse id="Ellipse_27" data-name="Ellipse 27" cx="3.017" cy="3.017" rx="3.017" ry="3.017" transform="translate(0 3.849)" fill="#fdd762"/>
        </g>
      </g>
    </g>
  </g>
</svg>
